<?xml version="1.0" encoding="UTF-8" standalone="no"?>
<!-- Created with Inkscape (http://www.inkscape.org/) -->

<svg
   width="87.723328mm"
   height="197.32594mm"
   viewBox="0 0 87.723328 197.32594"
   version="1.1"
   id="svg1"
   sodipodi:docname="Bier.svg"
   inkscape:version="1.4.2 (ebf0e940d0, 2025-05-08)"
   xmlns:inkscape="http://www.inkscape.org/namespaces/inkscape"
   xmlns:sodipodi="http://sodipodi.sourceforge.net/DTD/sodipodi-0.dtd"
   xmlns="http://www.w3.org/2000/svg"
   xmlns:svg="http://www.w3.org/2000/svg">
  <sodipodi:namedview
     id="namedview1"
     pagecolor="#505050"
     bordercolor="#ffffff"
     borderopacity="1"
     inkscape:showpageshadow="0"
     inkscape:pageopacity="0"
     inkscape:pagecheckerboard="1"
     inkscape:deskcolor="#505050"
     inkscape:document-units="mm"
     inkscape:zoom="0.75754786"
     inkscape:cx="12.540462"
     inkscape:cy="424.39563"
     inkscape:window-width="1920"
     inkscape:window-height="1008"
     inkscape:window-x="0"
     inkscape:window-y="0"
     inkscape:window-maximized="1"
     inkscape:current-layer="layer1" />
  <defs
     id="defs1">
    <clipPath
       clipPathUnits="userSpaceOnUse"
       id="clipPath7">
      <path
         style="fill:#2f1e1e;fill-opacity:1;stroke-width:0.264999"
         d="m 32.575033,112.88588 12.595273,7.65596 50.628059,1.48179 19.263355,-6.66808 0.7409,41.98424 -11.36044,10.86651 -48.899296,3.45752 -22.226952,-7.65594 z"
         id="path8" />
    </clipPath>
  </defs>
  <g
     id="layer1"
     transform="translate(-28.623575,-0.7632609)">
    <path
       style="fill:#543a27;fill-opacity:1;stroke-width:0.264999"
       d="m 34.211781,153.74039 5.401787,43.85488 68.162652,-0.86438 5.18629,-41.98425 1.35831,-42.60165 -19.757287,-63.717264 3.457524,-18.769428 -2.963592,-17.287629 2.46966,-8.6438145 -2.46966,-2.2226952 -36.304021,1.4817968 -1.234832,2.2226953 1.728764,6.1741536 -5.927188,18.52246 6.174152,16.793697 -23.955713,62.235468 z"
       id="path2" />
    <path
       style="fill:#675133;fill-opacity:1;stroke-width:0.241892"
       d="m 63.198832,57.565471 -23.708747,44.241409 -0.987865,10.90603 12.595273,5.35012 33.83436,1.44042 21.979987,-6.79054 -4.19842,-4.7328 -17.287635,6.17321 -32.352563,-1.44041 -7.65595,-6.17323 2.963594,-9.465599 z"
       id="path3" />
    <path
       style="fill:#6d6048;fill-opacity:1;stroke-width:0.264999"
       d="M 62.32744,46.865959 56.739234,28.70429 61.105021,14.209881 59.70797,6.7007294 l 1.047787,-2.9687343 8.99352,0.087316 -7.771099,1.484367 1.222419,5.588206 -0.17463,7.683783 -3.143366,7.334519 5.06431,16.93925 -1.047787,8.55694 z"
       id="path4"
       sodipodi:nodetypes="ccccccccccccc" />
    <path
       style="fill:#776f6e;fill-opacity:1;stroke-width:0.264999"
       d="m 57.271647,3.9738206 -0.493932,6.1741534 4.692356,-1.6052798 3.704492,2.8401108 4.939321,-3.8279755 3.457528,3.2105595 7.655949,-1.3583135 4.81584,2.2226955 1.975728,-2.2226955 4.939324,2.0992125 2.46966,-2.0992125 2.099212,1.1113475 L 97.957226,3.2467323 96.572858,1.28587 75.791323,1.0955175 58.980509,1.9332474 Z"
       id="path5"
       sodipodi:nodetypes="ccccccccccccccccc" />
    <path
       style="fill:#d8d8d8;fill-opacity:1;stroke-width:0.264999"
       d="m 34.211781,153.74039 5.401787,43.85488 68.162652,-0.86438 5.18629,-41.98425 1.35831,-42.60165 -19.757287,-63.717264 3.457524,-18.769428 -2.963592,-17.287629 2.46966,-8.6438145 -2.46966,-2.2226952 -36.304021,1.4817968 -1.234832,2.2226953 1.728764,6.1741536 -5.927188,18.52246 6.174152,16.793697 -23.955713,62.235468 z"
       id="path6"
       clip-path="url(#clipPath7)" />
    <path
       style="display:inline;fill:#275054;fill-opacity:1;stroke-width:0.264999"
       d="M 59.358707,130.86367 57.612391,153.74039 69.66196,153.2165 65.82007,126.84715 Z"
       id="path10"
       sodipodi:nodetypes="ccccc" />
    <path
       style="display:inline;fill:#275054;fill-opacity:1;stroke-width:0.264999"
       d="m 77.695006,126.84715 5.238944,0.87316 0.698526,7.15989 -5.588206,-1.74632 1.047787,5.76284 5.064313,-0.52389 0.349263,7.33452 -6.810627,-1.74632 -0.174632,5.58821 8.207679,-0.34926 0.17463,6.98525 -15.192933,0.34927 2.095577,-27.94103 z"
       id="path11"
       sodipodi:nodetypes="cccccccccccccc" />
    <path
       id="path12"
       style="display:inline;fill:#275054;fill-opacity:1;stroke-width:0.264999"
       d="m 108.08074,124.57689 -14.843538,5.06429 c 0,0 3.3e-5,24.62303 0.174666,25.84545 l 4.889624,0.69867 1.047999,-10.12858 2.968289,9.08058 4.89015,-4.71496 -8.033106,-12.74806 10.128576,-0.17466 z m -5.41362,6.11229 3.49281,3.49229 -3.49281,1.048 -5.238959,-1.39681 z"
       sodipodi:nodetypes="ccccccccccccccc" />
    <path
       id="path13"
       style="fill:#275054;fill-opacity:1;stroke-width:0.264999"
       d="M 39.276155 125.88689 L 39.101488 155.04997 L 54.119693 154.96263 L 53.421028 146.23138 L 46.523258 143.08791 L 54.03236 135.49147 L 53.333695 126.49771 L 39.276155 125.88689 z M 48.269404 129.72852 L 52.984879 134.26881 L 45.47526 136.97562 L 42.943114 133.13399 L 48.269404 129.72852 z M 48.094738 147.19153 L 49.928735 151.12101 L 45.737259 152.25582 L 42.594298 149.11286 L 48.094738 147.19153 z " />
  </g>
</svg>
