<?xml version="1.0" encoding="UTF-8" standalone="no"?>
<!-- Created with Inkscape (http://www.inkscape.org/) -->

<svg
   width="111.51439mm"
   height="198.1239mm"
   viewBox="0 0 111.51439 198.1239"
   version="1.1"
   id="svg1"
   xmlns="http://www.w3.org/2000/svg"
   xmlns:svg="http://www.w3.org/2000/svg">
  <defs
     id="defs1">
    <clipPath
       clipPathUnits="userSpaceOnUse"
       id="clipPath5">
      <path
         style="display:inline;fill:#543a27;stroke-width:0.264583"
         d="m 52.040049,44.977471 c 3.717147,-1.858571 57.615771,-5.947434 57.615771,-5.947434 0,0 36.79975,66.908633 36.79975,69.510643 0,2.602 -8.54944,94.41551 -8.54944,94.41551 l -123.780974,3.34543 c 0,0 1.858574,-122.665828 3.345432,-124.896112 1.486859,-2.230292 34.569461,-36.428037 34.569461,-36.428037 z"
         id="path6" />
    </clipPath>
    <clipPath
       clipPathUnits="userSpaceOnUse"
       id="clipPath8">
      <path
         style="display:inline;fill:#469698;fill-opacity:1;stroke-width:0.264583"
         d="m 27.135169,180.65331 7.062578,17.84231 91.813513,-2.23029 9.66458,-15.61202 -3.71714,-88.46808 -27.50689,-34.197745 -2.602,-46.836046 3.34543,-6.6908633 L 101.84981,0.37171463 66.165205,1.1151439 62.819774,4.088861 64.678348,10.40801 56.500624,60.9612 24.161452,110.02753 Z"
         id="path9"
         clip-path="url(#clipPath5)" />
    </clipPath>
  </defs>
  <g
     id="layer1"
     transform="translate(-24.161452,-0.37171463)">
    <path
       style="display:inline;fill:#c4d8d8;fill-opacity:1;stroke-width:0.264583"
       d="m 27.135169,180.65331 7.062578,17.84231 91.813513,-2.23029 9.66458,-15.61202 -3.71714,-88.46808 -27.50689,-34.197745 -2.602,-46.836046 3.34543,-6.6908633 L 101.84981,0.37171463 66.165205,1.1151439 62.819774,4.088861 64.678348,10.40801 56.500624,60.9612 24.161452,110.02753 Z"
       id="path5" />
    <path
       style="display:inline;fill:#469698;fill-opacity:1;stroke-width:0.264583"
       d="m 27.135169,180.65331 7.062578,17.84231 91.813513,-2.23029 9.66458,-15.61202 -3.71714,-88.46808 -27.50689,-34.197745 -2.602,-46.836046 3.34543,-6.6908633 L 101.84981,0.37171463 66.165205,1.1151439 62.819774,4.088861 64.678348,10.40801 56.500624,60.9612 24.161452,110.02753 Z"
       id="path1"
       clip-path="url(#clipPath5)" />
    <path
       style="display:inline;fill:#3f7998;fill-opacity:1;stroke-width:0.264583"
       d="m 15.98373,115.60325 63.934916,9.66458 60.589484,-10.77972 2.60201,53.15519 -57.244057,16.35545 -74.342929,-21.55945 z"
       id="path7"
       clip-path="url(#clipPath8)" />
  </g>
  <g
     id="layer2"
     transform="translate(-24.161452,-0.37171463)">
    <path
       style="fill:#3f7998;fill-opacity:1;stroke-width:0.264583"
       d="m 29.438298,125.24419 20.370249,0.91994 -1.314209,7.22816 -7.622415,-1.05137 -2.102737,23.39293 c 0,0 -4.731154,-0.39426 -4.862576,-1.05137 -0.131421,-0.6571 0.131422,-21.42161 0.131422,-21.42161 l -5.388261,-2.497 z"
       id="path10" />
    <path
       style="fill:#3f7998;fill-opacity:1;stroke-width:0.264583"
       d="m 55.065387,157.70517 -2.365579,-21.2902 13.930625,-7.22816 9.856573,7.35958 -3.679788,23.39293 z"
       id="path11" />
    <path
       style="fill:#3f7998;fill-opacity:1;stroke-width:0.264583"
       d="m 83.846579,160.72785 -0.131421,-28.38693 c 0,0 7.490997,-1.57705 7.622418,-0.91995 0.131419,0.6571 10.119414,17.47899 10.119414,17.47899 l -0.6571,-18.7932 c 0,0 7.22815,-2.23416 7.09673,-0.78852 -0.13142,1.44563 0.78852,30.62108 -0.13142,30.22682 -0.91995,-0.39426 -10.513681,0 -10.513681,0 l -4.599734,-11.17078 -1.839894,12.35357 z"
       id="path12" />
    <path
       style="fill:#3f7998;fill-opacity:1;stroke-width:0.264583"
       d="m 114.0734,132.8666 0.65711,28.25551 10.38226,-1.97131 -4.994,-30.62109 z"
       id="path13" />
    <path
       style="fill:#3f7998;fill-opacity:1;stroke-width:0.264583"
       d="m 132.73518,129.84392 c -0.65711,0 -7.22815,0.91995 -7.22815,0.91995 l 4.86257,31.54103 4.46832,-5.6511 -1.31421,-3.41695 -2.36558,3.1541 -1.05137,-19.31888 z"
       id="path14" />
  </g>
</svg>
