<?xml version="1.0" encoding="UTF-8" standalone="no"?>
<!-- Created with Inkscape (http://www.inkscape.org/) -->

<svg
   width="111.51439mm"
   height="198.1239mm"
   viewBox="0 0 111.51439 198.1239"
   version="1.1"
   id="svg1"
   sodipodi:docname="Blaues Tonic Wasser.svg"
   inkscape:version="1.4.2 (ebf0e940d0, 2025-05-08)"
   xmlns:inkscape="http://www.inkscape.org/namespaces/inkscape"
   xmlns:sodipodi="http://sodipodi.sourceforge.net/DTD/sodipodi-0.dtd"
   xmlns="http://www.w3.org/2000/svg"
   xmlns:svg="http://www.w3.org/2000/svg">
  <sodipodi:namedview
     id="namedview1"
     pagecolor="#505050"
     bordercolor="#ffffff"
     borderopacity="1"
     inkscape:showpageshadow="0"
     inkscape:pageopacity="0"
     inkscape:pagecheckerboard="1"
     inkscape:deskcolor="#505050"
     inkscape:document-units="mm"
     inkscape:zoom="0.75449679"
     inkscape:cx="119.9475"
     inkscape:cy="402.25486"
     inkscape:window-width="1920"
     inkscape:window-height="1008"
     inkscape:window-x="0"
     inkscape:window-y="0"
     inkscape:window-maximized="1"
     inkscape:current-layer="svg1" />
  <defs
     id="defs1">
    <clipPath
       clipPathUnits="userSpaceOnUse"
       id="clipPath5">
      <path
         style="display:inline;fill:#543a27;stroke-width:0.264583"
         d="m 52.040049,44.977471 c 3.717147,-1.858571 57.615771,-5.947434 57.615771,-5.947434 0,0 36.79975,66.908633 36.79975,69.510643 0,2.602 -8.54944,94.41551 -8.54944,94.41551 l -123.780974,3.34543 c 0,0 1.858574,-122.665828 3.345432,-124.896112 1.486859,-2.230292 34.569461,-36.428037 34.569461,-36.428037 z"
         id="path6" />
    </clipPath>
    <clipPath
       clipPathUnits="userSpaceOnUse"
       id="clipPath8">
      <path
         style="display:inline;fill:#469698;fill-opacity:1;stroke-width:0.264583"
         d="m 27.135169,180.65331 7.062578,17.84231 91.813513,-2.23029 9.66458,-15.61202 -3.71714,-88.46808 -27.50689,-34.197745 -2.602,-46.836046 3.34543,-6.6908633 L 101.84981,0.37171463 66.165205,1.1151439 62.819774,4.088861 64.678348,10.40801 56.500624,60.9612 24.161452,110.02753 Z"
         id="path9"
         clip-path="url(#clipPath5)" />
    </clipPath>
  </defs>
  <g
     id="layer1"
     transform="translate(-24.161452,-0.37171463)">
    <path
       style="display:inline;fill:#c4d8d8;fill-opacity:1;stroke-width:0.264583"
       d="m 27.135169,180.65331 7.062578,17.84231 91.813513,-2.23029 9.66458,-15.61202 -3.71714,-88.46808 -27.50689,-34.197745 -2.602,-46.836046 3.34543,-6.6908633 L 101.84981,0.37171463 66.165205,1.1151439 62.819774,4.088861 64.678348,10.40801 56.500624,60.9612 24.161452,110.02753 Z"
       id="path5" />
    <path
       style="display:inline;fill:#469698;fill-opacity:1;stroke-width:0.264583"
       d="m 27.135169,180.65331 7.062578,17.84231 91.813513,-2.23029 9.66458,-15.61202 -3.71714,-88.46808 -27.50689,-34.197745 -2.602,-46.836046 3.34543,-6.6908633 L 101.84981,0.37171463 66.165205,1.1151439 62.819774,4.088861 64.678348,10.40801 56.500624,60.9612 24.161452,110.02753 Z"
       id="path1"
       clip-path="url(#clipPath5)" />
    <path
       style="display:inline;fill:#3f7998;fill-opacity:1;stroke-width:0.264583"
       d="m 15.98373,115.60325 63.934916,9.66458 60.589484,-10.77972 2.60201,53.15519 -57.244057,16.35545 -74.342929,-21.55945 z"
       id="path7"
       clip-path="url(#clipPath8)" />
  </g>
  <path
     style="display:inline;fill:#6fb9be;fill-opacity:1;stroke-width:0.264999"
     d="m 38.965723,46.448465 -7.035036,29.31285 -19.036516,28.383915 30.25171,3.71947 53.808368,-4.46337 L 95.46646,92.986811 49.84093,101.16965 26.882911,98.091363 40.283286,66.72076 Z"
     id="path2"
     sodipodi:nodetypes="cccccccccc" />
  <path
     style="display:inline;fill:#edf2f9;fill-opacity:1;stroke-width:0.264999"
     d="M 43.145881,1.2398241 40.170303,4.9592965 42.154022,8.1828393 39.426409,37.194725 42.154022,38.930479 45.377565,7.438945 43.641811,4.9592965 45.62553,2.2316835 Z"
     id="path3" />
  <path
     id="path4"
     style="display:inline;fill:#d6feff;fill-opacity:1;stroke-width:0.264999"
     d="m 22.441524,122.99559 -1.735811,14.50609 7.934916,1.1157 1.983858,-5.70301 -3.719669,-2.35593 6.571175,-2.10737 -0.867647,-4.71134 z m 7.015076,2.37092 -0.701249,2.80551 -4.383195,1.22732 0.876432,-3.68247 z m -4.909261,8.41602 2.805513,0.70125 -0.701766,1.75338 -4.032312,-0.17518 z" />
  <path
     style="display:inline;fill:#d6feff;fill-opacity:1;stroke-width:0.264999"
     d="m 38.863898,125.67197 -4.215402,12.27426 8.306822,0.86788 -0.247965,-4.33938 -3.843455,0.12398 4.339385,-7.8109 z"
     id="path8" />
  <path
     id="path15"
     style="display:inline;fill:#d6feff;fill-opacity:1;stroke-width:0.264999"
     d="M 50.406742 126.50959 L 44.331661 138.78378 L 48.174837 137.91613 L 51.27439 132.33714 L 53.010201 132.7087 L 52.514624 139.77596 L 55.98573 140.51959 L 54.746012 127.12971 L 50.406742 126.50959 z M 52.864473 128.78542 L 52.688774 131.06487 L 49.97111 131.06487 L 51.724491 128.87327 L 52.864473 128.78542 z " />
  <path
     style="display:inline;fill:#d6feff;fill-opacity:1;stroke-width:0.264999"
     d="m 59.560151,126.51342 -0.495929,11.65435 8.430802,-0.37195 1.115843,-11.40638 -3.967438,-0.49593 1.239825,8.30682 -3.347524,0.12398 -0.703335,-7.05159 z"
     id="path16"
     sodipodi:nodetypes="ccccccccc" />
  <path
     style="display:inline;fill:#d6feff;fill-opacity:1;stroke-width:0.264999"
     d="m 73.972193,124.04988 4.959297,0.24796 -0.495929,1.48779 -2.727614,0.86788 v 2.85159 l 2.107703,0.37195 -0.123984,2.72761 -2.1077,-0.24796 0.247965,1.61177 2.60363,0.61991 -0.743895,3.09956 -5.951156,-0.37194 z"
     id="path17" />
  <path
     style="display:inline;fill:#d6feff;fill-opacity:1;stroke-width:0.264999"
     d="m 86.879789,136.76334 6.399821,-1.1397 1.052025,-3.24374 -3.59442,-1.92872 -2.279388,-2.71773 2.717731,-2.19172 4.821786,-0.61368 -0.876689,-3.24375 -7.27651,0.17534 -4.471109,2.98074 2.279388,6.66283 4.032766,0.17534 -3.945097,2.89307 -4.821785,0.96436 z"
     id="path18" />
  <path
     style="fill:#d6feff;fill-opacity:1;stroke-width:0.264999"
     d="m 17.357538,139.6042 c 0.99186,0.12398 16.365679,0.86788 16.365679,0.86788 l 0.371947,3.96743 -7.314962,-0.61991 2.727613,11.65435 -6.447086,0.61991 1.983719,-11.03443 -7.68691,-0.12399 z"
     id="path19" />
  <path
     id="path20"
     style="fill:#d6feff;fill-opacity:1;stroke-width:0.264999"
     d="M 50.832556 141.71176 L 38.186816 142.57993 L 36.078935 155.35021 L 41.657922 157.0855 L 50.709049 152.99428 L 50.832556 141.71176 z M 45.005522 145.55546 L 45.253569 151.01042 L 39.922111 152.62221 L 40.294181 146.9192 L 45.005522 145.55546 z " />
  <path
     style="fill:#d6feff;fill-opacity:1;stroke-width:0.264999"
     d="m 55.916071,155.59793 1.363805,-14.50594 6.447086,-0.49593 1.363805,10.5385 1.735754,-10.66249 5.331246,0.61992 -1.487789,17.6055 -8.306824,-1.98372 -0.247965,-9.79461 -1.735754,9.67063 z"
     id="path21" />
  <path
     style="fill:#d6feff;fill-opacity:1;stroke-width:0.264999"
     d="m 77.984938,139.35624 4.339386,-0.37195 -0.867878,16.98559 -8.554786,-0.61991 z"
     id="path22" />
  <path
     style="fill:#d6feff;fill-opacity:1;stroke-width:0.264999"
     d="m 93.97867,138.73632 7.93487,0.12399 -0.99186,5.45522 -8.058853,0.12399 1.487789,7.93487 5.827174,1.36381 -1.487787,3.09956 -12.522224,0.12398 -0.743895,-7.56293 4.339384,-8.92673 z"
     id="path23" />
  <path
     style="fill:#d6feff;fill-opacity:1;stroke-width:0.264999"
     d="m 18.845327,158.20156 0.991859,11.15842 3.471508,-3.96744 2.231683,4.46337 4.58735,-9.42266 -3.719473,-1.36381 -1.735754,5.08328 -0.991859,-2.1077 -1.983719,2.97558 -0.619912,-7.68691 z"
     id="path24" />
  <path
     id="path25"
     style="fill:#d6feff;fill-opacity:1;stroke-width:0.264999"
     d="M 39.798604 160.4331 L 35.706864 160.68115 L 30.375924 170.4759 L 34.2191 171.21952 L 36.699052 163.90472 L 36.699052 172.58326 L 40.666252 172.83131 L 39.798604 160.4331 z M 37.215299 161.79271 L 38.57439 163.50216 L 35.549768 163.06395 L 37.215299 161.79271 z " />
  <path
     style="fill:#d6feff;fill-opacity:1;stroke-width:0.264999"
     d="m 43.889775,173.82334 6.07514,0.61992 0.743894,-3.96744 -3.595491,-1.85974 0.495929,-1.61177 4.339384,0.61991 0.49593,-3.84345 -5.703189,-0.99186 -2.851597,4.09142 3.471507,4.09142 -2.975578,0.49593 z"
     id="path26" />
  <path
     style="fill:#d6feff;fill-opacity:1;stroke-width:0.264999"
     d="m 58.519698,176.42697 5.331245,-1.98371 -0.247965,-3.84346 -3.471508,-0.99186 1.611772,-2.47964 5.827174,-0.12399 -1.61177,-3.96744 -8.18284,-0.61991 -3.223543,6.57107 3.223543,2.8516 -4.215403,-0.12399 -0.49593,2.8516 z"
     id="path27"
     sodipodi:nodetypes="ccccccccccccc" />
  <path
     style="fill:#d6feff;fill-opacity:1;stroke-width:0.264999"
     d="m 74.761397,160.18528 5.207262,0.86787 -1.611773,3.47151 -2.975578,0.12398 0.123984,2.8516 3.967437,0.12398 -0.619913,3.96744 h -3.347524 l -0.247965,2.23168 3.595489,0.24797 -1.859735,2.23168 h -7.438946 l 0.659637,-8.54195 z"
     id="path28"
     sodipodi:nodetypes="cccccccccccccc" />
  <path
     id="path29"
     style="fill:#d6feff;fill-opacity:1;stroke-width:0.264999"
     d="m 96.334524,159.19326 -9.918775,3.22357 -0.124023,11.15849 2.603459,0.24805 1.364257,-5.20743 0.991671,3.3476 2.727482,-2.10789 -2.107881,-3.71915 3.967716,-0.49609 z m -3.595646,3.71967 -1.983859,3.09955 -2.727482,0.99167 0.991671,-3.09955 z" />
</svg>
