<?xml version="1.0" encoding="UTF-8" standalone="no"?>
<!-- Created with Inkscape (http://www.inkscape.org/) -->

<svg
   width="161.59494mm"
   height="98.406288mm"
   viewBox="0 0 161.59494 98.406288"
   version="1.1"
   id="svg1"
   xmlns="http://www.w3.org/2000/svg"
   xmlns:svg="http://www.w3.org/2000/svg">
  <defs
     id="defs1" />
  <g
     id="layer1"
     transform="translate(-0.05476819,-0.18005432)">
    <path
       style="fill:#9e8a7e;fill-opacity:1;stroke-width:0.264999"
       d="M 16.704473,1.0423597 C 18.018682,0.77951789 66.497738,5.0410279 66.497738,5.0410279 L 117.00943,0.18005431 137.9147,10.483724 154.32977,7.5077398 149.12125,41.241702 161.64973,51.330831 154.94565,91.869059 141.46146,97.957255 103.70242,91.781602 73.190481,98.514829 37.329941,90.696374 9.7425602,98.586344 7.8739841,77.210483 2.3246809,62.290003 0.0547682,49.602076 6.9392262,31.025019 2.0805192,14.561642 Z"
       id="path1" />
    <path
       style="display:inline;fill:#aea596;fill-opacity:1;stroke-width:0.264999"
       d="M 5.8308239,14.040434 13.31248,31.306486 2.8384274,50.266198 l 6.5104778,18.16892 5.0919268,24.952245 22.884602,-5.171179 34.713428,8.681521 30.865528,-9.193996 37.25071,8.790394 15.15785,-13.137566 2.34689,-32.399745 -12.5449,-8.849636 7.63015,-31.290072 -16.99452,5.431754 L 116.53254,3.8743201 63.77321,8.3899965 18.779326,4.12622 Z"
       id="path2" />
    <path
       style="fill:#e2ac6e;fill-opacity:1;stroke-width:0.264999"
       d="m 20.444305,11.987797 -8.549437,5.111077 -0.464643,18.306945 11.709012,5.761578 9.107008,-1.951504 5.111076,-10.31508 -3.159575,-13.753441 -11.337295,-3.717147 z"
       id="path118" />
    <path
       style="fill:#3342e9;fill-opacity:1;stroke-width:0.264999"
       d="m 24.161452,16.913016 -7.71308,2.78786 -4.367647,6.783792 0.929287,6.226219 -2.694931,-0.371713 -1.0222146,-6.133293 1.3939286,-8.270649 8.828223,-7.062579 4.739361,-0.185857 9.199938,2.416145 3.717147,4.739362 0.464643,5.111076 -0.836359,3.438362 -4.925218,-5.761578 -4.739362,-4.274719 z"
       id="path119" />
    <path
       style="fill:#2a36be;fill-opacity:1;stroke-width:0.264999"
       d="m 26.112952,16.634231 c -0.09293,-0.371715 -5.668647,-5.947435 -5.668647,-5.947435 l -0.929287,0.09293 z"
       id="path120" />
    <path
       style="fill:#ffffff;fill-opacity:1;stroke-width:0.264999"
       d="m 18.306945,24.811953 -3.903003,3.159575 2.973717,1.9515 6.226221,-1.301001 -0.09293,-2.973718 z"
       id="path121" />
    <path
       style="fill:#ffffff;fill-opacity:1;stroke-width:0.264999"
       d="m 29.644243,22.767522 -3.252504,2.78786 1.951503,1.579787 4.18179,-0.09293 1.393928,-2.13736 -1.393928,-2.416144 z"
       id="path122" />
    <path
       style="fill:#4a3737;fill-opacity:1;stroke-width:0.264999"
       d="m 19.329161,26.670527 -1.858573,1.393928 H 21.46652 V 26.94931 l -1.208072,-0.650499 z"
       id="path123" />
    <path
       style="fill:#4a3737;fill-opacity:1;stroke-width:0.264999"
       d="m 30.108886,23.975594 -0.278786,1.672715 1.9515,0.09293 0.464645,-1.39393 -0.650502,-0.929287 z"
       id="path124" />
    <path
       style="fill:#b14032;fill-opacity:1;stroke-width:0.264999"
       d="m 21.652377,36.056321 3.252504,-1.672717 3.252502,0.278787 1.765646,-1.858574 3.995931,0.464643 -2.787859,3.53129 -5.947434,1.301001 z"
       id="path125" />
    <path
       style="fill:#000000;fill-opacity:1;stroke-width:0.264999"
       d="m 40.600072,25.552038 h -2.562709 l -0.591394,1.774185 2.496997,1.839891 2.956973,-0.459973 1.774182,-9.59373 6.242497,0.262842 -2.168445,6.571049 -2.365579,-0.328552 -1.117079,2.496997 3.351236,0.788528 4.139761,-1.2485 -0.197133,-10.579389 -10.382255,-0.591394 z"
       id="path126" />
    <path
       style="fill:#000000;fill-opacity:1;stroke-width:0.264999"
       d="m 58.173341,19.607947 -1.022215,21.373593 3.252502,0.185856 -0.09293,-7.806007 5.668647,-1.393931 -0.185856,-3.438358 -3.531291,0.278783 0.185859,-4.73936 3.066646,-0.278786 1.022215,-3.995932 z"
       id="path127" />
    <path
       id="path128"
       style="fill:#000000;fill-opacity:1;stroke-width:0.264999"
       d="m 70.253855,20.165372 -1.115178,19.236552 2.787944,0.278536 1.39423,-6.505029 0.185518,6.691064 3.717603,-2.973978 -2.973979,-7.991761 3.43855,1.115178 1.300696,-7.527189 z m 2.323372,3.252515 3.996139,0.37207 -0.557589,2.973462 -3.810104,1.02216 z" />
    <path
       style="fill:#000000;fill-opacity:1;stroke-width:0.264999"
       d="m 78.989362,38.937107 0.650499,-1.486857 1.951503,1.39393 -1.48686,1.672715 z"
       id="path129" />
    <path
       style="fill:#000000;fill-opacity:1;stroke-width:0.264999"
       d="m 83.821651,21.745306 0.09293,18.214018 2.69493,-0.09293 0.464645,-5.389861 2.602003,-0.743429 c 0,0 -0.371716,5.111075 -0.371716,5.482791 0,0.371713 3.53129,-1.208075 3.53129,-1.208075 l 0.55757,-16.913015 -3.810074,0.650501 0.278786,8.177721 h -2.04443 l -0.929288,-8.735293 z"
       id="path130" />
    <path
       id="path131"
       style="fill:#000000;fill-opacity:1;stroke-width:0.264999"
       d="m 101.38503,20.908801 -4.925285,1.02216 -3.995621,16.448608 3.995621,0.650607 3.531568,-7.89926 c 0,0 -1.208313,7.062974 -1.301213,7.434689 -0.09293,0.371713 4.55373,1.393713 4.55373,1.393713 z m -2.787947,3.531568 1.951817,0.371553 -0.650605,3.06648 -1.858801,-0.464571 z" />
    <path
       id="path132"
       style="fill:#000000;fill-opacity:1;stroke-width:0.264999"
       d="m 108.76752,21.489128 -4.73924,0.186035 c 0,0 -1.02234,17.191823 -1.2082,17.842322 l 3.62459,0.557071 0.37155,-11.058239 2.88096,10.872721 2.23035,-2.137337 z m -2.45721,2.300634 1.30121,3.159497 -1.76578,-0.371553 z" />
    <path
       id="path133"
       style="fill:#000000;fill-opacity:1;stroke-width:0.264999"
       d="m 116.01617,22.046716 -3.90312,0.743107 v 15.798003 l 2.88096,1.022159 0.093,-5.482869 2.88045,5.018298 2.04483,-3.717086 -2.78794,-3.066479 3.25251,-6.784082 z m -0.87746,3.415812 2.69492,0.836125 -0.55758,2.787944 -2.88097,0.09302 z" />
    <path
       style="fill:#000000;fill-opacity:1;stroke-width:0.264999"
       d="m 128.56155,27.901146 -0.46464,-3.531289 -5.204,0.278786 -2.05483,5.283673 0.47505,7.912196 4.64643,1.208072 4.08886,-3.066645 -0.83636,-3.438361 -4.18179,-0.185857 1.39393,2.973719 -2.50907,-0.929288 0.0929,-5.389863 2.50907,-1.208072 z"
       id="path134" />
    <path
       id="path135"
       style="fill:#000000;fill-opacity:1;stroke-width:0.264999"
       d="m 132.92935,22.882841 -3.71708,1.765784 c 0,0 -0.18628,8.363847 0.0925,8.921419 0.27879,0.557572 1.8588,3.809587 1.8588,3.809587 l 3.06648,2.137854 2.32337,-4.182174 -0.37155,-9.571509 z m 1.53841,4.159436 0.55759,4.55321 -1.11518,3.717603 -2.04432,-1.02216 0.55759,-6.784082 z" />
    <path
       style="fill:#000000;fill-opacity:1;stroke-width:0.264999"
       d="m 138.12344,23.655775 -1.83989,16.821884 h 6.43962 v -3.154103 l -3.1541,0.525685 1.44563,-12.353573 z"
       id="path136" />
    <path
       style="fill:#000000;fill-opacity:1;stroke-width:0.264999"
       d="m 142.72317,24.707142 1.31421,16.953305 1.97132,-0.394263 -0.91995,-9.068046 3.54837,-1.839894 -1.18279,-2.365576 -2.10274,0.394261 0.26285,-2.891261 3.94263,-0.788526 v -3.285524 z"
       id="path137" />
    <path
       style="fill:#000000;fill-opacity:1;stroke-width:0.264999"
       d="M 9.068047,54.27686 6.9653115,60.453648 9.593731,61.110751 12.090729,55.45965 Z"
       id="path138" />
    <path
       style="fill:#000000;fill-opacity:1;stroke-width:0.264999"
       d="m 13.010676,54.145441 -2.102735,5.782522 2.628419,1.971315 1.577052,-6.439628 z"
       id="path139" />
    <path
       id="path140"
       style="fill:#000000;fill-opacity:1;stroke-width:0.264999"
       d="m 25.364343,44.551803 -4.205428,0.525549 -5.125785,15.50758 5.388301,-0.131258 1.051616,-6.176884 1.708423,-0.262516 1.314131,7.622274 3.811137,-0.788583 z M 23.008415,47.363 c 0.01486,3.01e-4 0.02756,0.01016 0.03772,0.03049 0.185857,0.371716 1.765783,4.089156 1.765783,4.089156 l -2.230355,0.371553 -0.743107,-1.672766 c 0,0 0.913041,-2.823622 1.169955,-2.818433 z" />
    <path
       id="path141"
       style="fill:#000000;fill-opacity:1;stroke-width:0.264999"
       d="m 33.512166,44.814319 -1.839681,15.113806 9.199439,2.102714 0.788582,-4.337203 -3.942912,-3.548104 4.731495,-4.07417 -3.548621,-4.99401 z m 3.659209,3.50883 1.672766,0.650089 -0.743624,1.487248 -2.973462,0.185518 z m -1.579749,8.363313 2.508891,0.464572 v 2.41639 h -2.229838 z" />
    <path
       style="fill:#000000;fill-opacity:1;stroke-width:0.264999"
       d="m 50.334232,47.048708 -1.44563,13.40494 5.913943,0.394261 V 45.471656 Z"
       id="path142" />
    <path
       style="fill:#000000;fill-opacity:1;stroke-width:0.264999"
       d="m 56.248175,61.373593 0.394263,-15.113412 3.285525,-0.394261 4.074049,12.879255 -0.919946,-12.353573 h 4.336891 L 68.076063,64.790539 62.16212,63.870593 59.402278,53.488335 58.876596,64.002012 Z"
       id="path143" />
    <path
       id="path144"
       style="fill:#000000;fill-opacity:1;stroke-width:0.264999"
       d="m 74.38409,47.574357 c 0,0 0.394291,14.325091 0.394291,14.850773 l 8.542631,-2.62878 -0.263033,-6.570658 z m 2.83962,6.510197 0.929142,0.278536 1.765784,-0.0925 1.393713,2.508891 -3.995621,1.765784 z" />
    <path
       style="fill:#000000;fill-opacity:1;stroke-width:0.264999"
       d="M 85.555052,50.202811 84.766527,61.899278 89.366261,61.373593 88.840576,48.888602 Z"
       id="path145" />
    <path
       style="fill:#000000;fill-opacity:1;stroke-width:0.264999"
       d="m 92.520364,48.362917 -1.182788,13.273519 7.228152,0.525684 -0.525685,-3.811209 -3.285524,-0.394263 0.657106,-3.416946 3.416945,0.657106 v -3.811209 l -2.89126,-0.262842 0.39426,-2.365576 3.81121,0.919945 -0.394264,-3.942627 -7.359573,0.131421 z"
       id="path146" />
    <path
       style="fill:#000000;fill-opacity:1;stroke-width:0.264999"
       d="m 26.021352,77.538373 7.490995,-1.051367 0.788527,7.228152 c 0,0 -14.587728,5.256839 -15.113412,5.256839 -0.525684,0 -4.731155,-16.559043 -4.731155,-16.559043 l 12.09073,-6.70247 8.279519,0.919949 -0.394261,5.6511 -7.096733,-1.577051 -8.279521,4.336893 c 0,0 1.182789,8.41094 1.839893,8.41094 0.657105,0 7.490995,-0.525682 7.490995,-0.525682 z"
       id="path150" />
    <path
       style="fill:#000000;fill-opacity:1;stroke-width:0.264999"
       d="m 36.638432,70.758917 -1.971315,13.930625 5.913943,-0.262842 0.394263,-3.942631 -2.496999,-0.394261 0.788527,-3.022684 3.154103,0.394263 v -3.548366 l -1.971315,0.131421 0.919948,-2.102734 2.891261,0.131421 1.182788,-3.548366 -5.519679,-0.131422 z"
       id="path151" />
    <path
       style="fill:#000000;fill-opacity:1;stroke-width:0.264999"
       d="m 45.180793,85.87233 c 0.131422,-0.919946 3.416946,-15.376252 3.416946,-15.376252 l 2.628421,6.439627 4.862576,-6.833891 2.628418,17.084725 -4.993997,0.131421 -0.657106,-8.542364 -1.971312,2.102737 -1.445631,-3.022682 0.26284,8.542364 z"
       id="path152" />
    <path
       style="fill:#000000;fill-opacity:1;stroke-width:0.264999"
       d="m 60.68847,73.255917 c 0,0 -1.577052,14.062043 -1.05137,14.062043 0.525685,0 7.753839,0.788527 7.885261,0.131422 0.131418,-0.657106 1.182788,-15.770516 1.182788,-15.770516 l -2.75984,0.657103 -0.525685,7.885261 -3.022682,1.971312 -0.657106,-9.199467 z"
       id="path153" />
    <path
       style="fill:#000000;fill-opacity:1;stroke-width:0.264999"
       d="M 68.808549,72.476731 C 70.25418,72.34531 80.242174,71.819626 80.242174,71.819626 l -0.525685,5.125418 -4.599733,-1.051367 1.051367,9.987994 -4.993995,-0.131421 0.657103,-8.279521 h -3.022682 z"
       id="path154" />
    <path
       style="fill:#000000;fill-opacity:1;stroke-width:0.264999"
       d="m 81.47006,69.671794 -3.285524,18.530358 7.885258,0.657103 1.051367,-4.731155 -4.599734,0.788528 2.891261,-15.244834 z"
       id="path155" />
    <path
       style="fill:#000000;fill-opacity:1;stroke-width:0.264999"
       d="M 89.223897,68.620427 88.17253,87.282204 94.086471,86.362258 92.772264,67.963321 Z"
       id="path156" />
    <path
       style="fill:#000000;fill-opacity:1;stroke-width:0.264999"
       d="m 103.0231,67.174797 1.57705,4.731154 -7.490999,1.577052 v 5.519679 l 6.176789,3.285524 0.91995,3.81121 -8.805209,-0.525685 -1.57705,-9.46231 2.10274,-6.176785 1.83989,-3.022682 z"
       id="path157" />
    <path
       style="fill:#000000;fill-opacity:1;stroke-width:0.264999"
       d="m 107.35999,68.094742 -1.70847,18.793198 4.20547,0.131421 -0.13142,-6.176785 4.46831,-0.919946 -0.91995,6.176786 3.81121,0.262842 1.44563,-18.398937 -4.33689,-0.262842 0.13142,6.439627 -3.54836,0.657106 0.52568,-7.490994 z"
       id="path158" />
    <path
       style="fill:#000000;fill-opacity:1;stroke-width:0.264999"
       d="m 120.76493,65.597745 -1.70847,23.655774 3.67978,-0.262843 -0.39426,-5.782521 3.54837,3.679785 2.89126,-4.993994 -4.46832,-2.628422 5.78253,-11.827888 -4.07405,-1.314209 -2.10274,5.651103 -0.52568,-8.279521 z"
       id="path159" />
    <path
       style="fill:#000000;fill-opacity:1;stroke-width:0.264999"
       d="m 130.49008,65.334903 -1.18279,22.472985 6.17679,0.262843 0.91994,-5.782525 -3.8112,0.657106 0.91994,-3.811209 4.07405,-0.919945 -0.13142,-4.731155 -3.94263,0.657103 1.18279,-3.679785 3.41695,-0.131421 0.13142,-4.599734 z"
       id="path160" />
    <path
       style="fill:#000000;fill-opacity:1;stroke-width:0.264999"
       d="m 140.32227,66.908634 -1.48685,21.745307 3.34543,-1.301001 1.20807,-21.187735 z"
       id="path161" />
    <path
       style="fill:#000000;fill-opacity:1;stroke-width:0.264999"
       d="m 144.50406,65.235919 8.7353,-0.929288 -1.39393,5.854507 -2.50907,-0.557572 -1.11515,15.426158 -2.23029,0.464642 0.83636,-16.076657 -3.53129,0.278786 z"
       id="path162" />
    <path
       style="fill:#000000;fill-opacity:1;stroke-width:0.264999"
       d="m 60.775343,69.32478 -1.858574,2.973716 3.345432,-0.371713 1.951503,-2.973718 z"
       id="path163" />
    <path
       style="fill:#000000;fill-opacity:1;stroke-width:0.264999"
       d="m 65.886421,67.652064 -0.743432,3.717147 3.159575,-1.115145 1.765647,-2.416146 z"
       id="path164" />
    <path
       style="fill:#000000;fill-opacity:1;stroke-width:0.264999"
       d="m 156.09373,59.233249 -1.20807,4.460573 2.602,-0.185857 0.46464,-3.903003 z"
       id="path165" />
    <path
       style="fill:#000000;fill-opacity:1;stroke-width:0.264999"
       d="m 153.21294,58.582747 -1.301,5.018148 2.50908,-0.278786 0.37171,-4.739362 z"
       id="path166" />
  </g>
</svg>
