<?xml version="1.0" encoding="UTF-8" standalone="no"?>
<!-- Created with Inkscape (http://www.inkscape.org/) -->

<svg
   width="151.92262mm"
   height="94.104805mm"
   viewBox="0 0 151.92262 94.104805"
   version="1.1"
   id="svg1"
   xmlns="http://www.w3.org/2000/svg"
   xmlns:svg="http://www.w3.org/2000/svg">
  <defs
     id="defs1" />
  <g
     id="layer1"
     transform="translate(-6.3739167,-4.0083397)">
    <path
       style="fill:#9e8a7e;fill-opacity:1;stroke-width:0.264999"
       d="M 15.310543,8.4766526 C 16.624752,8.2138108 78.655449,4.0083397 78.655449,4.0083397 l 31.015351,3.6797871 31.27819,-1.0513679 12.35357,16.0333581 -3.1541,26.021352 8.1481,19.450304 -8.1481,25.232825 -38.90061,-1.839893 c 0,0 -26.021352,6.833891 -27.335561,6.571048 C 82.59808,97.842914 41.594736,94.425968 41.594736,94.425968 L 19.778856,97.842914 7.6881268,90.220495 10.316546,66.564722 6.3739171,50.531363 10.84223,36.600739 8.2138108,18.464646 Z"
       id="path1" />
    <path
       style="fill:#aea596;fill-opacity:1;stroke-width:0.264999"
       d="m 10.036295,18.771589 2.602003,16.169587 -3.903004,11.894868 3.345432,18.02816 -1.301002,23.603881 10.036296,7.434292 18.399876,-5.018149 44.791613,5.389864 29.737171,-6.876721 33.64018,2.230286 9.47872,-24.719023 -9.85044,-19.143302 3.903,-22.302879 L 140.13642,9.2928658 111.88611,10.779724 78.617645,6.1332916 16.913016,10.593867 Z"
       id="path2" />
    <path
       style="fill:#d7ae85;fill-opacity:1;stroke-width:0.264999"
       d="m 23.882666,14.125156 c 0,0 -7.248436,6.412078 -7.155507,6.96965 0.09293,0.557572 2.880788,15.054442 2.880788,15.054442 l 10.40801,3.717147 10.036294,-1.951501 2.509076,-8.270652 L 40.98154,13.381727 28.343241,11.616082 Z"
       id="path3" />
    <path
       style="fill:#cb5f00;fill-opacity:1;stroke-width:0.264999"
       d="m 17.470588,21.373592 5.296934,2.416145 1.579787,-2.694931 3.995932,0.836358 4.460575,-0.464644 2.416146,-2.323216 3.624218,2.509074 3.995931,2.694931 -0.09293,-10.222153 -0.371715,17.284732 2.694932,3.903004 3.159574,-4.553506 c 0,0 -0.836358,-4.739361 -0.929285,-5.668648 C 47.207759,24.161452 43.955255,10.40801 43.955255,10.40801 l -10.686796,-0.185857 -6.04036,-1.2080731 -2.694933,4.0888611 -8.363579,-0.09293 v 4.367647 l -3.624218,3.717147 c 0,0 1.858573,8.828222 1.858573,9.75751 0,0.929285 2.602003,12.824153 2.602003,12.824153 l 5.575719,-0.929286 -0.464643,-4.925218 3.717146,-1.208072 -2.137359,-10.872654 1.486859,-3.995933 z"
       id="path4" />
    <path
       style="fill:#2e2828;fill-opacity:1;stroke-width:0.264999"
       d="m 25.555382,26.763453 2.416145,-2.044429 2.880789,-0.09293 1.765644,3.624219 -3.717147,1.765643 -4.181789,-1.022215 z"
       id="path5" />
    <path
       style="fill:#2e2828;fill-opacity:1;stroke-width:0.264999"
       d="m 31.409888,26.484667 2.230287,-1.301 3.624217,0.557572 -2.230286,0.743428 -1.393931,-0.371714 z"
       id="path6" />
    <path
       style="fill:#2e2828;fill-opacity:1;stroke-width:0.264999"
       d="m 36.892677,23.975594 -0.836356,2.787859 3.717144,0.650502 2.13736,-2.880789 -2.509073,-1.39393 z"
       id="path7" />
    <path
       style="fill:#2e2828;fill-opacity:1;stroke-width:0.264999"
       d="m 25.834167,27.135169 -2.416145,-1.579787 0.09293,1.858573 z"
       id="path8" />
    <path
       style="fill:#2e2828;fill-opacity:1;stroke-width:0.264999"
       d="m 40.702753,24.626095 1.022215,-3.066646 0.371716,2.416145 z"
       id="path9" />
    <path
       style="fill:#bd2f25;fill-opacity:1;stroke-width:0.264999"
       d="m 29.133136,34.383604 2.736701,-0.476058 2.467303,1.173023 1.39393,-1.068679 1.71918,0.511102 2.276752,-2.276752 0.557572,2.741396 -3.717147,2.416146 -4.228255,-0.464644 -2.671481,-0.36649 z"
       id="path10" />
    <path
       style="fill:#42220c;fill-opacity:1;stroke-width:0.264999"
       d="m 44.683129,40.214817 3.548367,-7.359573 4.599733,-4.993998 2.365579,1.182788 -2.891261,5.25684 -5.782524,6.833891 z"
       id="path11" />
    <path
       style="fill:#e3cdaf;fill-opacity:1;stroke-width:0.264999"
       d="m 52.876407,28.482634 0.836358,-2.694931 3.577754,-2.369681 2.276751,-0.464643 0.418179,0.511108 -1.812108,0.557571 0.278787,1.301002 -0.929288,2.230288 -2.555537,1.533321 z"
       id="path12" />
    <path
       style="fill:#3520e3;fill-opacity:1;stroke-width:0.264999"
       d="m 59.24202,23.139236 1.347467,-1.486858 1.393928,-0.557572 0.975752,0.278786 0.32525,0.604036 -0.23232,0.696965 -0.743432,0.371715 -0.55757,0.09293 -0.464645,-0.418179 -0.511106,-0.32525 -0.650502,0.185857 z"
       id="path13" />
    <path
       style="fill:#3520e3;fill-opacity:1;stroke-width:0.264999"
       d="m 58.545055,23.278629 -2.044431,1.347466 0.232323,1.208072 0.929286,-1.115143 z"
       id="path14" />
    <path
       style="fill:#3520e3;fill-opacity:1;stroke-width:0.264999"
       d="m 58.359198,24.068523 -1.022215,2.509074 1.858574,-0.139393 z"
       id="path15" />
    <path
       style="fill:#3520e3;fill-opacity:1;stroke-width:0.264999"
       d="m 59.288486,23.046308 -1.90504,-0.04647 -0.464642,0.789894 z"
       id="path16" />
    <path
       style="fill:#3520e3;fill-opacity:1;stroke-width:0.264999"
       d="m 59.660199,23.882666 c 0,0 -0.557572,1.579787 -0.464642,1.765644 0.09293,0.185857 0.929285,0.232322 0.929285,0.232322 z"
       id="path17" />
    <path
       style="fill:#3520e3;fill-opacity:1;stroke-width:0.264999"
       d="m 58.963234,22.953379 -0.929286,1.672716 1.254538,-0.04646 0.09293,-1.765644 z"
       id="path18" />
    <path
       style="fill:#c5a981;fill-opacity:1;stroke-width:0.264999"
       d="m 53.455479,28.584062 1.445631,-2.661276 2.726986,-2.267011 -1.478486,1.347065 -1.084223,1.281354 z"
       id="path19" />
    <path
       style="fill:#c5a981;fill-opacity:1;stroke-width:0.264999"
       d="m 54.27686,28.912613 0.919948,-1.938459 1.478486,-1.37992 -1.084222,1.248499 z"
       id="path20" />
    <path
       style="fill:#c5a981;fill-opacity:1;stroke-width:0.264999"
       d="m 54.618821,28.993742 1.881803,-1.858573 1.138378,-2.369681 -0.929288,2.369681 z"
       id="path21" />
    <path
       style="fill:#c5a981;fill-opacity:1;stroke-width:0.264999"
       d="m 53.039033,28.412937 1.022215,-2.485841 2.323216,-1.649484 -2.276752,1.812109 z"
       id="path22" />
    <path
       style="fill:#000000;fill-opacity:1;stroke-width:0.200523"
       d="m 67.005219,20.40283 -2.461145,19.056299 3.304967,0.210955 0.843821,-7.735027 3.797198,0.140636 0.984458,-3.234649 -3.515924,0.07032 0.632866,-4.500381 4.851974,0.492229 -0.140638,-4.781655 z"
       id="path26" />
    <path
       id="path27"
       style="fill:#000000;fill-opacity:1;stroke-width:0.200523"
       d="m 76.568482,22.582578 -2.390769,16.946929 2.390769,0.210767 2.461155,-5.273847 -0.49231,5.273847 3.726925,-0.140381 -2.179612,-11.461926 3.796919,-4.078462 z m 2.320382,2.109616 1.75808,1.617308 -3.023458,1.26577 z" />
    <path
       style="fill:#000000;fill-opacity:1;stroke-width:0.264999"
       d="m 83.734195,40.279337 2.416143,-1.765644 0.836358,2.230287 z"
       id="path28" />
    <path
       style="fill:#000000;fill-opacity:1;stroke-width:0.210816"
       d="m 89.429269,23.606226 -3.326762,0.887136 1.034992,1.848201 3.178905,-0.443568 -0.887135,14.415967 2.365695,-0.221784 0.517498,-13.824543 6.0621,-0.739281 -2.069986,-2.143913 z"
       id="path29" />
    <path
       style="fill:#000000;fill-opacity:1;stroke-width:0.238388"
       d="m 95.687782,39.390112 4.096251,0.334388 3.511067,-3.427476 -2.84229,-2.925895 2.92589,-5.099417 3.76187,-0.167192 0.41798,-3.427478 -5.76819,-0.668776 -4.430637,4.932222 0.25079,5.600998 1.75553,2.00633 -4.179844,-0.668778 -1.755538,3.678269 z"
       id="path30" />
    <path
       style="fill:#000000;fill-opacity:1;stroke-width:0.264999"
       d="m 111.18214,23.721485 -2.89126,0.854237 -3.21982,6.505339 -0.32855,8.21381 6.04537,0.459973 1.44563,-3.285525 -4.20547,0.06571 -0.32855,-5.059709 2.69413,-3.811206 2.43128,-0.328555 z"
       id="path31" />
    <path
       style="fill:#000000;fill-opacity:1;stroke-width:0.264999"
       d="m 113.61343,23.655776 -0.6571,15.836225 2.29986,-0.06571 -0.39426,-4.599734 2.23416,-0.722815 -0.0657,5.45397 2.62842,-0.197133 V 31.3439 23.590063 l -2.62842,-0.262841 0.45997,7.885257 -1.70847,0.131421 -0.59139,-8.016678 z"
       id="path32" />
    <path
       style="fill:#000000;fill-opacity:1;stroke-width:0.264999"
       d="m 122.48434,22.604407 -0.13142,17.216148 2.36558,-0.657106 -0.85424,-16.624752 z"
       id="path33" />
    <path
       style="fill:#000000;fill-opacity:1;stroke-width:0.264999"
       d="m 129.58108,23.524354 -4.13976,0.854236 -0.65711,14.522018 3.54837,0.788524 1.18279,-3.416943 -2.16845,-0.328554 -0.72281,-6.96531 3.41694,-2.694131 z"
       id="path34" />
    <path
       style="fill:#000000;fill-opacity:1;stroke-width:0.264999"
       d="m 133.91797,24.115748 2.95697,2.168446 -4.33689,4.205471 3.94263,6.308206 -2.62842,3.285524 -1.18279,-5.6511 -0.52568,5.519679 -1.9056,-0.591394 0.91994,-17.74183 1.44563,0.657105 -0.72281,5.45397 z"
       id="path35" />
    <path
       style="fill:#000000;fill-opacity:1;stroke-width:0.264999"
       d="m 141.80322,23.655775 -0.45997,3.482656 -1.64276,-0.459973 v 4.993995 l 1.57705,0.131421 v 2.825552 l -1.64276,-0.131422 v 1.379922 l 1.97131,0.525684 0.0657,2.562707 -3.67979,0.262842 -0.91994,-16.033358 z"
       id="path36" />
    <path
       style="fill:#000000;fill-opacity:1;stroke-width:0.322385"
       d="m 143.83501,23.655774 -0.38902,15.441965 4.86258,-1.117078 -0.68077,-3.548367 -1.75053,1.182788 -0.1945,-12.025018 z"
       id="path37" />
    <path
       style="fill:#000000;fill-opacity:1;stroke-width:0.264999"
       d="m 13.864913,57.496674 -1.445631,3.154103 1.839893,0.394264 3.022683,-5.782522 -2.825551,0.328552 z"
       id="path38" />
    <path
       style="fill:#000000;fill-opacity:1;stroke-width:0.264999"
       d="m 18.201805,58.942304 -2.234157,1.642764 2.168446,1.379921 2.496999,-2.431288 0.328552,-4.928288 z"
       id="path39" />
    <path
       id="path40"
       style="fill:#000000;fill-opacity:1;stroke-width:0.264999"
       d="m 24.575761,47.639986 -2.760038,11.696444 7.162353,-0.854212 -0.328145,-3.351216 -1.905827,-1.708423 3.876766,-3.022555 -0.394291,-2.628263 z m 4.836397,1.42627 -1.39423,1.719275 -2.369364,0.09302 0.929142,-1.672766 z m -3.996138,6.644555 1.626257,0.139527 -0.650606,1.486731 -2.880961,-0.697115 z" />
    <path
       style="fill:#000000;fill-opacity:1;stroke-width:0.264999"
       d="m 33.380926,48.231496 4.796866,-0.394264 -0.328551,2.497 -2.891264,-0.19713 -0.328551,2.365576 3.154103,0.131421 -0.06571,1.2485 -2.891263,0.262842 -0.06571,1.248498 2.69413,0.459972 -0.131421,1.642764 -5.519682,0.459973 -0.19713,-10.579389 z"
       id="path41" />
    <path
       style="fill:#000000;fill-opacity:1;stroke-width:0.264999"
       d="m 45.603077,47.508681 -5.256839,-0.197131 -1.51134,3.614076 3.811207,1.905603 -0.919946,2.168449 -3.548367,0.525682 0.657106,1.839894 6.439628,0.19713 1.774182,-3.679785 -3.154103,-3.285524 2.89126,-1.31421 z"
       id="path42" />
    <path
       style="fill:#000000;fill-opacity:1;stroke-width:0.264999"
       d="m 51.911284,48.165787 -3.219815,-0.328555 -0.525682,2.628421 2.95697,0.131422 -1.905604,6.308206 6.176786,0.19713 -2.365577,-6.176785 4.665443,0.328552 -1.051367,-2.496997 z"
       id="path43" />
    <path
       style="fill:#000000;fill-opacity:1;stroke-width:0.264999"
       d="m 59.205148,48.82289 -1.31421,8.345233 h 4.336892 l -0.591394,-2.891263 -1.051367,0.197133 0.394261,-2.431288 1.511342,0.06571 0.394264,-2.299867 -1.708473,0.262843 0.131421,-1.2485 h 2.037024 v -1.971313 l -3.482654,0.26284 z"
       id="path44" />
    <path
       id="path45"
       style="fill:#000000;fill-opacity:1;stroke-width:0.264999"
       d="m 68.93016,48.29731 -1.314132,9.724988 6.505546,-0.854211 -0.328662,-2.299601 -2.497005,-1.642794 3.022554,-2.891297 -0.656807,-1.642793 z m 2.903698,1.00149 1.254704,0.51108 -1.858801,1.719274 -1.300696,-0.836641 1.626257,-0.975651 z m -1.440222,5.528861 2.322856,0.604098 -0.604098,1.39423 -3.066479,-0.557589 z" />
    <path
       id="path46"
       style="fill:#000000;fill-opacity:1;stroke-width:0.264999"
       d="m 79.115584,48.494198 -4.07417,8.213969 3.219959,0.131258 0.328145,-3.745508 h 1.642794 l -0.196887,4.53409 2.825667,0.45992 -1.314132,-9.5281 z m 0.756543,1.687235 0.279053,1.579749 -1.347721,-0.139527 z" />
    <path
       id="path47"
       style="fill:#000000;fill-opacity:1;stroke-width:0.264999"
       d="m 87.000891,49.414038 -2.365747,7.885307 1.774052,0.263033 1.248503,-2.628263 -0.196888,2.891296 2.431376,0.06563 -1.314648,-4.862752 2.431376,0.394291 -0.131258,-3.942395 z m 1.839164,1.371493 1.16117,0.04651 -0.418063,1.115178 -2.276863,-0.279053 z" />
    <path
       id="path48"
       style="fill:#000000;fill-opacity:1;stroke-width:0.264999"
       d="m 97.58009,49.611442 -1.511535,7.425387 2.760038,0.45992 2.233977,-2.234489 0.26303,-2.628263 z m 1.156519,3.078882 1.579751,2.044836 -2.276866,0.51108 z" />
    <path
       style="fill:#000000;fill-opacity:1;stroke-width:0.264999"
       d="m 103.30615,49.809762 c 0,0 -1.11514,7.898937 -0.97575,8.131257 0.13939,0.232322 4.73936,0.371716 4.73936,0.371716 l 0.55757,-2.044431 -3.02018,-0.696965 0.83636,-1.71918 2.55554,0.278786 v -1.533324 l -1.9515,-0.418179 -0.0929,-1.022215 2.46261,-0.41818 -0.0465,-1.161608 z"
       id="path49" />
    <path
       id="path50"
       style="fill:#000000;fill-opacity:1;stroke-width:0.264999"
       d="m 109.17008,49.523075 0.13953,8.595858 1.71876,0.278536 0.74362,-2.415873 0.18603,2.601908 2.18385,-0.278536 -2.09135,-4.135665 2.36989,-1.115177 -0.13953,-3.299023 z m 1.87947,1.308964 1.48725,0.418063 0.0925,1.208195 -2.36936,0.09302 z" />
    <path
       style="fill:#000000;fill-opacity:1;stroke-width:0.264999"
       d="m 117.6757,48.516733 3.85654,11.476688 c 0,0 1.71918,-5.018146 1.85858,-4.785826 0.13939,0.232323 1.90503,4.18179 1.90503,4.18179 l 5.48279,-11.058509 -4.92521,-0.232323 0.0465,5.715114 -2.36968,-4.739362 c 0,0 -1.44039,4.692896 -1.44039,4.878755 0,0.185857 -0.65051,-6.226222 -0.65051,-6.226222 z"
       id="path51" />
    <path
       style="fill:#000000;fill-opacity:1;stroke-width:0.264999"
       d="m 132.45796,48.21403 3.06665,-0.09293 0.92928,3.206041 -2.83432,-0.511109 -0.37172,2.741395 2.0909,0.32525 -0.18586,1.533324 -1.57979,-0.232323 -0.0465,3.066648 2.55554,0.464643 -2.23029,2.183823 -3.94947,-0.511109 z"
       id="path52" />
    <path
       style="fill:#000000;fill-opacity:1;stroke-width:0.264999"
       d="m 138.18765,47.750754 c -0.0465,0.278786 -1.11514,13.9393 -1.11514,13.9393 l 5.85451,-0.836358 -0.60404,-2.509073 -2.97372,0.604036 c 0,0 1.25454,-11.290832 1.02222,-11.383762 -0.23232,-0.09293 -2.18383,0.185857 -2.18383,0.185857 z"
       id="path53" />
    <path
       style="fill:#000000;fill-opacity:1;stroke-width:0.264999"
       d="m 144.64346,51.017833 0.55757,10.036297 3.20604,-0.511109 -1.76565,-9.525188 3.20604,-1.440394 -1.1616,-2.462609 -6.87673,1.579787 -1.06867,2.834325 z"
       id="path54" />
    <path
       style="fill:#000000;fill-opacity:1;stroke-width:0.264999"
       d="m 149.33636,60.682414 -1.9515,2.323217 2.23028,0.278786 1.57979,-4.367647 z"
       id="path55" />
    <path
       style="fill:#000000;fill-opacity:1;stroke-width:0.264999"
       d="m 19.42209,76.201502 2.78786,-10.965582 1.672716,0.09293 1.858573,5.947436 2.323215,-5.66865 h 3.252505 l 0.929285,10.222153 h -3.066645 l -0.929285,-5.575721 -0.650502,3.066648 -2.602003,-0.464642 -1.022215,-2.23029 -0.278786,5.018149 z"
       id="path56" />
    <path
       style="fill:#000000;fill-opacity:1;stroke-width:0.264999"
       d="m 34.383604,65.979349 -0.650499,10.129223 4.274716,-0.929285 -0.836358,-9.757511 z"
       id="path57" />
    <path
       style="fill:#000000;fill-opacity:1;stroke-width:0.264999"
       d="m 43.118899,65.421776 -3.903003,0.836359 -0.371716,2.694929 3.995933,-0.185856 -3.159575,5.57572 4.832289,-0.557572 0.650502,-4.832292 2.787859,-1.022215 0.185857,-2.694929 z"
       id="path58" />
    <path
       style="fill:#000000;fill-opacity:1;stroke-width:0.264999"
       d="m 58.028162,66.193006 2.496997,-2.95697 -7.293864,-1.051369 -2.891261,5.651103 4.271182,3.088391 -0.788524,2.037027 -5.191131,0.919946 -0.06571,2.365578 3.942628,0.328552 7.031021,-0.919948 0.854237,-4.074049 -3.811207,-2.431288 -1.905606,-2.75984 z"
       id="path59" />
    <path
       style="fill:#000000;fill-opacity:1;stroke-width:0.264999"
       d="m 66.439104,63.82743 0.131421,2.102736 -3.876918,0.985655 0.722815,3.94263 2.69413,1.971315 v 1.708473 l -3.154103,0.197131 -2.365579,-5.651101 0.722816,-4.665445 z"
       id="path60" />
    <path
       style="fill:#000000;fill-opacity:1;stroke-width:0.264999"
       d="m 68.673259,64.221693 -0.722815,9.725152 2.562709,0.26284 0.131421,-3.548364 2.102736,-0.131421 -0.06571,2.759839 2.168446,0.131421 0.06571,-9.725151 -2.956973,0.19713 1.05137,3.745497 -2.102737,0.788527 0.197131,-4.731154 z"
       id="path61" />
    <path
       id="path62"
       style="fill:#000000;fill-opacity:1;stroke-width:0.264999"
       d="m 79.843805,63.958725 -3.022554,1.577165 0.854211,7.031095 4.468461,0.722954 1.839681,-3.877283 -0.525549,-4.336686 z m 0.526067,3.219959 1.839681,0.591178 -1.379761,2.300118 -1.577165,-0.394291 z" />
    <path
       style="fill:#000000;fill-opacity:1;stroke-width:0.264999"
       d="m 77.412756,62.644642 1.905603,-1.774185 2.102736,1.905603 z"
       id="path63" />
    <path
       style="fill:#000000;fill-opacity:1;stroke-width:0.264999"
       d="m 82.538171,62.447509 1.774185,-1.051367 1.182788,2.102736 z"
       id="path64" />
    <path
       style="fill:#000000;fill-opacity:1;stroke-width:0.264999"
       d="m 86.546511,73.42116 1.051369,-10.250836 2.234155,-0.525682 2.365579,7.425282 0.328552,-7.228152 2.365578,0.131421 -0.394263,10.842231 -2.956973,-0.328554 -1.971312,-6.242495 -0.394264,6.242495 z"
       id="path65" />
    <path
       style="fill:#000000;fill-opacity:1;stroke-width:0.264999"
       d="m 97.520158,63.696009 h 4.599742 l -0.72282,2.69413 -1.774182,0.262842 -0.13142,1.51134 1.839892,0.328552 -0.72281,1.839894 -2.299872,-0.197131 0.5914,2.037025 2.234152,-0.328552 -0.26284,1.971315 h -4.271183 z"
       id="path66" />
    <path
       id="path67"
       style="fill:#000000;fill-opacity:1;stroke-width:0.264999"
       d="m 104.28831,63.761838 -0.39429,9.396326 2.30012,0.526066 0.6568,-3.351217 0.52555,3.416846 2.56315,-0.263033 -1.97145,-4.599719 2.10271,-3.416846 z m 1.90583,1.708423 1.90531,0.722953 -0.52555,1.511019 -2.23397,-0.45992 z" />
    <path
       style="fill:#000000;fill-opacity:1;stroke-width:0.264999"
       d="m 114.60489,68.295742 0.45998,-5.585391 h 2.16844 l -0.0657,5.848234 2.497,-4.993998 2.23416,1.839894 -3.35124,4.00834 3.08839,4.074049 -2.69413,1.379921 -1.97131,-3.351234 0.26284,3.088391 -3.02268,-0.06571 z"
       id="path68" />
    <path
       style="fill:#000000;fill-opacity:1;stroke-width:0.264999"
       d="m 124.00149,64.813087 -0.72282,10.513677 4.59974,-0.197131 0.45997,-10.250836 -1.97131,0.854236 -0.13142,5.913943 -1.2485,-0.197131 0.26284,-6.636758 z"
       id="path69" />
    <path
       style="fill:#000000;fill-opacity:1;stroke-width:0.264999"
       d="m 128.73264,74.603948 1.2485,-8.082388 1.90561,-0.591394 0.59139,6.111073 0.91995,-6.242494 h 2.62842 l -1.11708,9.790861 -3.7455,-0.788524 0.26285,-3.679788 -1.37992,3.679788 z"
       id="path70" />
    <path
       style="fill:#000000;fill-opacity:1;stroke-width:0.264999"
       d="m 141.54619,65.404481 -3.54837,0.131422 -1.12365,1.793894 -0.38769,2.740128 2.29987,1.37992 0.45997,2.825552 -2.82555,-0.06571 -1.70847,2.759841 3.67978,0.197131 3.21982,-0.394262 1.44563,-3.219814 -2.03703,-3.351235 -2.16844,-1.379921 0.98566,-1.051367 1.44563,0.262841 z"
       id="path71" />
    <path
       style="fill:#000000;fill-opacity:1;stroke-width:0.264999"
       d="m 146.67161,66.061585 -3.48266,-0.06571 -0.85423,2.56271 2.95697,0.131421 -1.57705,8.870915 3.48265,-0.328551 0.32856,-8.410943 4.07404,-0.985658 -0.26284,-1.774184 z"
       id="path72" />
    <path
       style="fill:#a85a1f;fill-opacity:1;stroke-width:0.264999"
       d="m 17.019016,23.195801 2.496998,15.244834 0.657105,-1.31421 z"
       id="path73" />
    <path
       style="fill:#a85a1f;fill-opacity:1;stroke-width:0.264999"
       d="m 21.093066,20.37025 -0.985657,8.476654 1.511341,4.534022 -0.788526,-4.27118 0.788526,-5.651103 z"
       id="path74" />
    <path
       style="fill:#a85a1f;fill-opacity:1;stroke-width:0.264999"
       d="m 19.778856,17.478989 -4.205471,3.154104 -0.197131,6.965311 0.788525,-6.505338 z"
       id="path75" />
    <path
       style="fill:#a85a1f;fill-opacity:1;stroke-width:0.264999"
       d="m 34.235162,17.281858 5.25684,2.299867 -3.219813,-2.562709 -2.628421,0.06571 z"
       id="path76" />
    <path
       style="fill:#a85a1f;fill-opacity:1;stroke-width:0.264999"
       d="m 44.485999,32.001007 -1.182788,-7.622417 -1.774185,-4.796865 2.562709,4.402602 z"
       id="path77" />
    <path
       style="fill:#a85a1f;fill-opacity:1;stroke-width:0.264999"
       d="m 38.506344,14.784859 5.256839,3.679787 0.262843,-0.525684 z"
       id="path78" />
    <path
       style="fill:#a85a1f;fill-opacity:1;stroke-width:0.264999"
       d="m 24.050038,14.324886 -5.716812,-0.394263 -1.31421,3.154103 1.774183,-2.628419 z"
       id="path79" />
    <path
       style="fill:#a85a1f;fill-opacity:1;stroke-width:0.264999"
       d="m 31.01535,15.310543 2.431288,-2.891261 4.271181,-0.328553 -4.13976,0.919947 z"
       id="path80" />
    <path
       style="fill:#a85a1f;fill-opacity:1;stroke-width:0.264999"
       d="m 28.846904,16.559042 -4.731156,-1.511341 -0.854236,1.971315 1.248499,1.774183 -0.394263,-2.496999 0.328553,-0.657105 z"
       id="path81" />
    <path
       style="fill:#000000;fill-opacity:1;stroke-width:0.264999"
       d="m 152.17068,65.189454 1.99797,0.09293 -1.20808,6.505006 -1.62625,-0.371713 z"
       id="path83" />
    <path
       style="fill:#000000;fill-opacity:1;stroke-width:0.264999"
       d="m 154.77268,65.282383 0.83636,0.32525 -1.48686,6.876722 -0.78989,-0.511109 z"
       id="path84" />
  </g>
</svg>
