<?xml version="1.0" encoding="UTF-8" standalone="no"?>
<!-- Created with Inkscape (http://www.inkscape.org/) -->

<svg
   width="154.52464mm"
   height="95.249916mm"
   viewBox="0 0 154.52464 95.249916"
   version="1.1"
   id="svg1"
   xmlns="http://www.w3.org/2000/svg"
   xmlns:svg="http://www.w3.org/2000/svg">
  <defs
     id="defs1" />
  <g
     id="layer1"
     transform="translate(-2.6567708,-2.1497668)">
    <path
       style="fill:#9e8a7e;fill-opacity:1;stroke-width:0.264999"
       d="M 11.686325,6.2463647 C 13.000534,5.9835229 66.76058,2.1497665 66.76058,2.1497665 l 48.6718,9.0696495 32.20747,-6.255373 0.64456,20.679791 6.8822,24.534494 2.01481,24.282594 -13.53797,15.568244 -31.0946,5.036828 c 0,0 -29.68793,-0.114343 -31.002139,-0.377186 -1.314209,-0.262839 -46.271124,2.710877 -46.271124,2.710877 L 23.496002,90.780336 4.5285523,82.042773 11.617547,63.962719 2.6567707,44.769786 6.9392262,31.025019 6.7269522,15.119214 Z"
       id="path1" />
    <path
       style="display:inline;fill:#aea596;fill-opacity:1;stroke-width:0.264999"
       d="M 10.036295,18.771589 9.1070089,34.197747 5.2040049,45.535043 14.868586,64.492489 8.9211508,81.033792 36.79975,94.787233 83.078224,90.326656 112.62954,93.486232 141.99499,89.397371 154.26158,74.157069 152.403,51.482476 149.05757,39.215895 144.59699,14.496871 143.11014,8.3635792 116.53254,14.125156 68.767207,5.761577 14.311013,7.8060072 Z"
       id="path2" />
    <path
       style="fill:#f4a472;fill-opacity:1;stroke-width:0.264999"
       d="m 17.741831,29.306877 2.252061,5.903118 4.58183,5.399086 11.03936,2.496996 8.01668,-4.074048 0.788527,-9.725152 -3.548366,-15.507675 -7.622419,-3.022682 -12.222149,1.577051 -3.416945,5.782523 z"
       id="path84" />
    <path
       style="fill:#5d4b3e;fill-opacity:1;stroke-width:0.264999"
       d="m 17.084726,25.889931 3.154104,-0.788526 1.314209,-6.176785 0.262842,-2.496998 2.102736,-1.577052 2.62842,0.394263 5.519679,2.496998 3.154104,-0.394263 1.051369,-2.365577 0.657105,-0.788526 2.102733,0.262842 3.022684,4.862576 0.394263,-0.788526 -1.708473,-5.256839 -7.359575,-2.496998 -5.92119,-0.221105 -7.089486,1.272472 -2.628419,5.651102 -1.182789,7.359574 z"
       id="path85" />
    <path
       style="fill:#ffffff;fill-opacity:1;stroke-width:0.264999"
       d="m 23.139236,26.484667 2.509074,-1.765643 3.903005,0.278785 1.486858,2.602003 -3.531291,1.672717 -4.553503,-1.951504 z"
       id="path86" />
    <path
       style="fill:#ffffff;fill-opacity:1;stroke-width:0.264999"
       d="m 34.569462,23.975594 3.531288,-1.39393 2.973719,-0.371714 0.185856,2.973717 -3.345431,1.579787 -3.624218,-1.115145 z"
       id="path87" />
    <path
       style="fill:#9c4835;fill-opacity:1;stroke-width:0.264999"
       d="m 27.729825,38.637765 4.468313,-2.234155 2.628418,0.459973 2.431288,-1.44563 4.336894,0.131421 -1.2485,2.759839 -5.322549,1.642761 z"
       id="path88" />
    <path
       style="fill:#603a29;fill-opacity:1;stroke-width:0.264999"
       d="m 27.181634,25.834167 -1.486859,1.347465 1.858573,0.882822 1.765643,-0.743429 -1.440394,-1.393929 z"
       id="path89" />
    <path
       style="fill:#603a29;fill-opacity:1;stroke-width:0.264999"
       d="m 37.543178,23.789737 -0.789892,1.022215 1.208072,0.696965 1.62625,-0.74343 0.232323,-0.789893 -1.765644,-0.32525 z"
       id="path90" />
    <path
       style="fill:#5d4b3e;fill-opacity:1;stroke-width:0.264999"
       d="m 23.185701,23.371558 5.900968,0.04646 1.301002,0.232322 c 0,0 -0.371714,0.650501 -0.55757,0.696965 -0.185859,0.04646 -5.343399,-0.325251 -5.343399,-0.325251 l -1.812109,0.882823 z"
       id="path91" />
    <path
       style="fill:#5d4b3e;fill-opacity:1;stroke-width:0.264999"
       d="m 33.918961,22.302878 5.761577,-1.997966 0.743429,1.254537 -2.880788,0.557572 -3.206039,0.929287 -2.137359,0.882822 z"
       id="path92" />
    <path
       style="fill:#d4e9e8;fill-opacity:1;stroke-width:0.264999"
       d="m 45.734499,31.343901 -0.131422,1.905603 9.856573,7.622419 2.825549,-0.262843 1.905606,-10.382258 5.716813,-6.373916 1.64276,-0.525684 -5.256836,-4.599734 -0.394264,1.511342 -6.308206,6.899601 z"
       id="path93" />
    <path
       style="fill:#000000;fill-opacity:1;stroke-width:0.21406"
       d="m 66.6343,20.021171 0.106159,21.125604 h 3.71556 l -0.212318,-6.26337 3.184763,-0.530795 v 5.944895 h 4.140194 l -0.530794,-20.170176 -4.034034,0.318477 0.530793,10.191247 -3.821717,0.636951 0.212318,-11.677468 z"
       id="path94" />
    <path
       id="path95"
       style="fill:#000000;fill-opacity:1;stroke-width:0.224382"
       d="m 79.825618,19.236035 v 21.088119 l 2.753838,0.314709 0.472322,-7.86877 2.203483,-1.337386 0.865064,8.891447 3.855578,-0.393775 -2.910933,-11.881445 2.202966,-5.350578 z m 3.232361,4.945435 3.285588,0.788582 -1.182874,3.022555 -3.153812,-0.263033 z" />
    <path
       style="fill:#000000;fill-opacity:1;stroke-width:0.264999"
       d="m 91.590767,39.350049 1.765647,-2.04443 1.672715,1.486861 -0.557573,2.787859 z"
       id="path96" />
    <path
       style="fill:#000000;fill-opacity:1;stroke-width:0.264999"
       d="m 95.137997,21.065653 3.90301,19.793804 3.252503,-5.482791 3.81008,6.22622 4.27471,-20.258447 -4.36764,-0.09293 -2.23029,12.824155 -1.301,-4.553503 -0.83636,4.646432 -2.044433,-13.381727 -3.71715,0.464643 z"
       id="path97" />
    <path
       style="fill:#000000;fill-opacity:1;stroke-width:0.264999"
       d="m 111.6661,23.606615 -0.18586,16.076659 9.47872,1.765644 0.27879,-21.094806 -2.88079,0.6505 v 13.010011 l -4.08886,-0.464642 0.83636,-13.660513 -3.06665,0.836358 z"
       id="path98" />
    <path
       style="fill:#000000;fill-opacity:1;stroke-width:0.264999"
       d="m 123.3685,19.078395 0.46464,22.395806 9.29287,-1.765644 -0.6505,-4.646432 -4.36765,1.672714 0.55757,-18.585731 z"
       id="path99" />
    <path
       style="fill:#000000;fill-opacity:1;stroke-width:0.264999"
       d="m 135.23808,40.102819 -0.74342,-21.280663 8.27065,0.185858 -0.6505,6.690862 -3.99594,-0.464642 0.0929,2.973718 3.43836,0.185856 -0.18586,4.646433 -2.88078,0.278786 0.37171,7.155508 z"
       id="path100" />
    <path
       style="fill:#000000;fill-opacity:1;stroke-width:0.264999"
       d="m 112.89061,16.953305 -0.6571,1.577052 3.54836,0.262842 v -2.234157 z"
       id="path101" />
    <path
       style="fill:#000000;fill-opacity:1;stroke-width:0.264999"
       d="m 118.80456,15.639095 -0.78853,2.496999 3.02268,0.525684 0.39427,-2.365578 z"
       id="path102" />
    <path
       style="fill:#000000;fill-opacity:1;stroke-width:0.264999"
       d="m 17.005945,55.664266 -1.858573,4.460576 1.951501,1.022215 2.973718,-5.947434 z"
       id="path103" />
    <path
       style="fill:#000000;fill-opacity:1;stroke-width:0.264999"
       d="m 20.258448,56.128911 -2.416145,4.925219 3.345431,0.650499 1.208073,-6.412076 z"
       id="path104" />
    <path
       id="path106"
       style="fill:#000000;fill-opacity:1;stroke-width:0.264999"
       d="m 25.495601,47.968648 -1.051098,13.142351 5.913851,0.393774 2.233972,-3.679362 -3.416846,-1.971456 4.468461,-5.651335 -4.99401,-2.102714 z m 2.847889,2.863391 2.601908,0.09302 -1.39423,2.04432 -2.880445,0.09302 z m 1.393713,6.969601 -0.279053,1.858801 -1.207678,0.464571 -1.579749,-1.579748 0.743108,-0.650607 z" />
    <path
       style="fill:#000000;fill-opacity:1;stroke-width:0.264999"
       d="m 35.777535,49.438046 -0.929288,12.359513 4.739362,-0.278786 -0.09293,-2.323216 -1.9515,-0.650502 0.278786,-2.137357 2.602002,-0.371716 0.185857,-2.13736 -2.230287,-0.278786 0.185857,-1.486858 2.04443,-0.371716 0.278786,-2.602002 z"
       id="path107" />
    <path
       style="fill:#000000;fill-opacity:1;stroke-width:0.264999"
       d="m 48.60169,51.29662 1.208072,-2.416146 -6.505006,-1.022215 -1.765644,4.088863 3.531288,4.553502 v 2.044431 l -3.995934,1.579787 0.278787,3.066648 8.456509,-0.743432 1.301001,-4.08886 -3.53129,-3.531288 -1.951501,-2.694932 z"
       id="path108" />
    <path
       style="fill:#000000;fill-opacity:1;stroke-width:0.264999"
       d="m 55.292553,48.973403 -4.367646,-0.278786 0.371713,4.088863 2.602002,-0.557572 -0.557572,10.129223 3.438361,0.743429 0.371715,-10.872652 2.416144,0.09293 0.557572,-3.252502 z"
       id="path109" />
    <path
       style="fill:#000000;fill-opacity:1;stroke-width:0.264999"
       d="m 62.076345,48.973403 -0.650502,13.381728 5.296935,-0.371716 0.185856,-2.137359 -2.137357,-0.09293 0.09293,-3.159575 h 1.858574 l 0.557572,-2.230289 -2.416146,-0.185857 0.371716,-1.765644 h 2.230287 l 0.650501,-4.18179 z"
       id="path110" />
    <path
       id="path111"
       style="fill:#000000;fill-opacity:1;stroke-width:0.264999"
       d="m 77.595264,47.579525 -7.248137,1.208195 -0.836641,13.102559 2.41639,0.37207 1.672766,-5.761922 0.929142,5.85494 2.601909,-0.557589 -0.464572,-6.970117 2.601909,-2.508891 z m -1.858285,2.323372 0.557589,1.300696 -1.672766,1.672766 -3.06648,-0.650606 1.486731,-1.672766 z" />
    <path
       style="fill:#000000;fill-opacity:1;stroke-width:0.264999"
       d="m 84.379222,48.787547 3.438361,13.381728 2.973718,-4.18179 2.973716,5.111075 5.204005,-13.9393 -3.810074,-1.022215 -2.323217,7.806007 -1.579787,-3.903003 -1.951503,3.903003 -0.929285,-8.642363 z"
       id="path112" />
    <path
       id="path113"
       style="fill:#000000;fill-opacity:1;stroke-width:0.264999"
       d="m 106.12432,47.114792 -5.76141,2.880961 -2.044313,8.270296 2.508883,3.903121 8.82841,-1.579748 -0.92915,-6.783565 z m -0.74311,5.389852 1.67277,1.39423 -1.67277,3.809587 -2.97398,-0.464571 1.11518,-3.717086 z" />
    <path
       id="path114"
       style="fill:#000000;fill-opacity:1;stroke-width:0.264999"
       d="m 113.00128,47.579453 -0.74362,13.660665 6.50503,-2.694926 0.46457,-6.691065 z m 2.04432,4.925281 1.8588,0.371553 0.55759,3.531568 -2.41639,0.743107 z" />
    <path
       style="fill:#000000;fill-opacity:1;stroke-width:0.264999"
       d="m 121.9224,46.743115 -1.39393,14.032227 c 0,0 3.62422,1.301002 3.62422,0.929289 0,-0.371716 0.18586,-3.810077 0.18586,-3.810077 l 3.43836,4.088863 2.41614,-3.810077 -3.62422,-2.04443 3.53129,-6.13329 -2.69493,-1.672717 -1.76564,3.159574 -0.18586,-4.832291 z"
       id="path115" />
    <path
       id="path116"
       style="fill:#000000;fill-opacity:1;stroke-width:0.264999"
       d="m 140.50814,47.021953 -6.13347,0.371553 -4.64623,13.939201 3.71708,0.279053 1.85881,-8.084778 2.97346,0.09302 -0.37156,7.99176 4.46071,0.464571 z m -3.62407,2.044319 h 1.67277 l -0.18603,2.137338 -2.88097,-0.464571 z" />
    <path
       style="fill:#000000;fill-opacity:1;stroke-width:0.264999"
       d="m 143.70883,45.208814 -1.44563,4.468312 1.51134,1.708473 1.51134,-5.979655 z"
       id="path117" />
    <path
       style="fill:#000000;fill-opacity:1;stroke-width:0.264999"
       d="m 146.46867,46.06305 -0.72281,6.176785 c 0,0 1.77418,0.525685 1.77418,0.131422 0,-0.394264 0.39426,-6.965313 0.39426,-6.965313 z"
       id="path118" />
  </g>
</svg>
