<?xml version="1.0" encoding="UTF-8" standalone="no"?>
<!-- Created with Inkscape (http://www.inkscape.org/) -->

<svg
   width="79.91864mm"
   height="195.91231mm"
   viewBox="0 0 79.91864 195.91231"
   version="1.1"
   id="svg1"
   sodipodi:docname="Limettensaft.svg"
   inkscape:version="1.4.2 (ebf0e940d0, 2025-05-08)"
   xmlns:inkscape="http://www.inkscape.org/namespaces/inkscape"
   xmlns:sodipodi="http://sodipodi.sourceforge.net/DTD/sodipodi-0.dtd"
   xmlns="http://www.w3.org/2000/svg"
   xmlns:svg="http://www.w3.org/2000/svg">
  <sodipodi:namedview
     id="namedview1"
     pagecolor="#505050"
     bordercolor="#ffffff"
     borderopacity="1"
     inkscape:showpageshadow="0"
     inkscape:pageopacity="0"
     inkscape:pagecheckerboard="1"
     inkscape:deskcolor="#505050"
     inkscape:document-units="mm"
     inkscape:zoom="0.53953242"
     inkscape:cx="-453.17017"
     inkscape:cy="742.30942"
     inkscape:window-width="1920"
     inkscape:window-height="1008"
     inkscape:window-x="0"
     inkscape:window-y="0"
     inkscape:window-maximized="1"
     inkscape:current-layer="layer1" />
  <defs
     id="defs1">
    <clipPath
       clipPathUnits="userSpaceOnUse"
       id="clipPath5">
      <path
         style="fill:#095631;fill-opacity:1;stroke-width:0.264583"
         d="m 38.374923,124.0614 45.471657,6.57104 36.00935,-5.25684 7.35957,49.41429 -44.945974,4.994 c 0,0 -44.157445,-5.51968 -45.734497,-6.30821 -1.577051,-0.78852 1.839894,-49.41428 1.839894,-49.41428 z"
         id="path6" />
    </clipPath>
    <clipPath
       clipPathUnits="userSpaceOnUse"
       id="clipPath6">
      <path
         style="fill:#e5e5e5;stroke-width:0.264999"
         d="m 41.060694,110.72276 11.096344,10.74959 50.627072,2.77408 15.25747,-11.09634 -7.9755,-109.9231533 H 58.051971 Z"
         id="path7" />
    </clipPath>
  </defs>
  <g
     id="layer1"
     transform="translate(-38.286608,-1.8398937)">
    <path
       style="display:inline;fill:#1a9534;fill-opacity:1;stroke-width:0.264583"
       d="m 38.286607,194.40676 79.918643,3.34543 -3.34543,-95.53066 L 98.50438,68.023778 101.10638,3.7171463 72.112639,4.088861 68.767206,80.662077 45.7209,114.11639 Z"
       id="path1" />
    <path
       style="display:inline;fill:#c8df66;fill-opacity:1;stroke-width:0.264583"
       d="m 38.286607,194.40676 79.918643,3.34543 -2.23029,-95.71652 L 98.50438,68.023778 101.10638,3.7171463 72.112639,4.088861 68.767206,80.662077 47.021901,96.831664 Z"
       id="path4"
       clip-path="url(#clipPath5)" />
    <path
       style="display:inline;fill:#2aa624;fill-opacity:1;stroke-width:0.264583"
       d="m 38.286607,194.40676 79.918643,3.34543 -3.34543,-95.53066 L 98.50438,68.023778 101.10638,3.7171463 72.112639,4.088861 68.767206,80.662077 45.7209,114.11639 Z"
       id="path3"
       clip-path="url(#clipPath6)" />
    <path
       style="display:inline;fill:#095631;fill-opacity:1;stroke-width:0.264583"
       d="M 67.81322,2.3655775 69.784537,16.953305 103.69114,16.033358 105.00536,1.8398936 Z"
       id="path2"
       clip-path="none" />
    <path
       style="fill:#2aa624;fill-opacity:1;stroke-width:0.252367"
       d="m 47.480081,132.04855 -3.302149,14.2172 8.072779,0.57092 2.683847,-3.59021 -7.926213,-0.6217 3.773884,-12.48339 -2.830413,-1.04028 z"
       id="path8"
       sodipodi:nodetypes="cccccccc" />
    <path
       style="fill:#2aa624;fill-opacity:1;stroke-width:0.261521"
       d="m 56.499986,131.0888 -1.688597,15.951 7.76755,1.90718 -1.51974,-18.5517 z"
       id="path10" />
    <path
       style="fill:#2aa624;fill-opacity:1;stroke-width:0.261521"
       d="m 64.187399,148.46763 1.671627,-15.32481 2.865645,-0.49039 2.268636,12.01465 2.985048,-11.27906 2.985047,-1.22598 0.477608,16.42819 -3.582058,0.36779 1.194018,-10.66606 -3.104449,10.78866 -2.985045,-0.49039 -1.671627,-11.64685 0.238803,11.89204 z"
       id="path11" />
    <path
       style="fill:#2aa624;fill-opacity:1;stroke-width:0.261521"
       d="m 80.067851,134.36881 -0.835814,14.22142 4.298468,-0.98079 0.716413,-4.16835 -2.746245,0.61299 0.477609,-3.80055 2.746241,-0.24519 0.238804,-2.57457 -2.507439,0.1226 v -2.81977 l 3.343253,-0.49039 -0.358205,-3.55535 -4.895477,0.61299 z"
       id="path12" />
    <path
       style="fill:#2aa624;fill-opacity:1;stroke-width:0.261521"
       d="m 90.336411,134.7366 -3.94026,0.2452 0.716411,-4.29094 8.596938,-0.2452 h 6.3283 l -0.1194,5.02653 -4.65668,-0.36779 0.11941,11.15646 -2.38804,0.24519 0.4776,-11.52425 h -3.223844 l 0.477607,12.75024 -2.388042,-0.61299 z"
       id="path13" />
    <path
       style="fill:#2aa624;fill-opacity:1;stroke-width:0.264999"
       d="m 102.89599,130.93605 -2.32937,15.57 6.12992,0.49039 -1.10339,-3.55535 -2.08417,-0.36779 1.22598,-4.04575 1.96158,0.1226 0.49039,-3.43276 -2.32937,0.36779 0.85819,-3.31015 1.71638,0.24519 0.61299,-2.45197 z"
       id="path14" />
    <path
       style="fill:#2aa624;fill-opacity:1;stroke-width:0.264999"
       d="m 108.65811,147.48684 0.73559,-17.04118 1.83898,-0.2452 1.10339,8.82709 1.59377,-9.44008 1.34859,0.49039 0.1226,16.30559 h -2.57457 l -2.08418,-10.54346 v 11.15645 z"
       id="path15" />
    <path
       style="fill:#2aa624;fill-opacity:1;stroke-width:0.264999"
       d="m 46.504312,164.30386 -0.739199,5.86369 10.738938,0.72072 6.811122,-3.8883 -3.052344,-4.84253 -3.463857,-4.49493 5.541573,-3.13423 1.814334,-4.46687 -6.621636,-0.91555 -5.061125,0.67035 -4.106299,5.60001 3.643101,4.28223 3.551746,4.15347 -4.122668,1.79181 z"
       id="path16"
       sodipodi:nodetypes="ccccccccccccccc" />
    <path
       id="path17"
       style="fill:#2aa624;fill-opacity:1;stroke-width:0.264999"
       d="M 77.21033 152.16043 L 72.009097 152.33407 L 64.380106 170.10559 L 69.408223 173.13952 L 71.662349 162.4766 L 74.002774 162.3903 L 72.26903 172.01297 L 79.637572 172.44602 L 77.21033 152.16043 z M 73.742842 155.80156 L 75.996968 161.00331 L 70.795218 160.91649 L 73.742842 155.80156 z " />
    <path
       style="fill:#2aa624;fill-opacity:1;stroke-width:0.264999"
       d="m 84.319099,153.11427 7.281973,-0.95359 -0.520139,6.41507 -4.247819,-0.43345 0.34676,2.77409 h 2.687394 l -0.866902,6.50176 -3.554296,-0.69352 0.346761,8.32226 -6.155002,1.12697 z"
       id="path18" />
    <path
       style="fill:#2aa624;fill-opacity:1;stroke-width:0.264999"
       d="m 95.935582,152.8542 17.944868,-0.60683 -0.60683,4.68127 -7.36866,-0.52014 0.0867,17.77149 -8.408944,1.21366 3.727674,-17.77149 -7.542043,0.60683 v -5.46148 z"
       id="path19" />
  </g>
</svg>
