<?xml version="1.0" encoding="UTF-8" standalone="no"?>
<!-- Created with Inkscape (http://www.inkscape.org/) -->

<svg
   width="84.379227mm"
   height="193.94485mm"
   viewBox="0 0 84.379227 193.94485"
   version="1.1"
   id="svg1"
   sodipodi:docname="Roter Wermut.svg"
   inkscape:version="1.4.2 (ebf0e940d0, 2025-05-08)"
   xmlns:inkscape="http://www.inkscape.org/namespaces/inkscape"
   xmlns:sodipodi="http://sodipodi.sourceforge.net/DTD/sodipodi-0.dtd"
   xmlns="http://www.w3.org/2000/svg"
   xmlns:svg="http://www.w3.org/2000/svg">
  <sodipodi:namedview
     id="namedview1"
     pagecolor="#505050"
     bordercolor="#ffffff"
     borderopacity="1"
     inkscape:showpageshadow="0"
     inkscape:pageopacity="0"
     inkscape:pagecheckerboard="1"
     inkscape:deskcolor="#505050"
     inkscape:document-units="mm"
     inkscape:zoom="0.54500565"
     inkscape:cx="147.70489"
     inkscape:cy="621.09448"
     inkscape:window-width="1920"
     inkscape:window-height="1008"
     inkscape:window-x="0"
     inkscape:window-y="0"
     inkscape:window-maximized="1"
     inkscape:current-layer="layer1" />
  <defs
     id="defs1">
    <clipPath
       clipPathUnits="userSpaceOnUse"
       id="clipPath4">
      <path
         style="fill:#201d26;fill-opacity:1;stroke-width:0.264583"
         d="m 39.951975,89.629102 c 4.993997,-0.26284 46.785866,2.365576 46.785866,2.365576 l 44.945969,-4.46831 4.994,61.767852 -49.939969,10.25084 -52.83123,-11.03936 z"
         id="path5" />
    </clipPath>
    <clipPath
       clipPathUnits="userSpaceOnUse"
       id="clipPath6">
      <path
         style="fill:#a11f56;stroke-width:0.264999"
         d="m 44.291936,59.076185 23.686209,8.7536 37.245705,0.686556 22.48473,-11.843107 -15.44752,-34.842756 -10.29835,-4.46262 -37.07407,0.858196 z"
         id="path7" />
    </clipPath>
  </defs>
  <g
     id="layer1"
     transform="translate(-42.747183,-1.5770518)"
     style="display:inline">
    <path
       style="display:inline;fill:#7b212e;fill-opacity:1;stroke-width:0.264583"
       d="m 42.747185,170.61702 15.240298,24.90488 59.474337,-3.34543 9.66459,-24.90488 L 125.63955,57.615769 99.247809,23.046308 99.247803,2.9737171 71.36921,3.3454318 69.138921,31.595745 47.207761,59.846057 Z"
       id="path1" />
    <path
       style="display:inline;fill:#d7d1d1;fill-opacity:1;stroke-width:0.264583"
       d="m 42.747185,170.61702 15.240298,24.90488 59.474337,-3.34543 9.66459,-24.90488 L 125.63955,57.615769 99.247809,23.046308 99.247803,2.9737171 71.36921,3.3454318 69.138921,31.595745 47.207761,59.846057 Z"
       id="path3"
       clip-path="url(#clipPath4)" />
    <path
       style="display:inline;fill:#882d2c;fill-opacity:1;stroke-width:0.264583"
       d="m 42.747185,170.61702 15.240298,24.90488 59.474337,-3.34543 9.66459,-24.90488 L 125.63955,57.615769 99.247809,23.046308 99.247803,2.9737171 71.36921,3.3454318 69.138921,31.595745 47.207761,59.846057 Z"
       id="path4"
       clip-path="url(#clipPath6)" />
    <path
       style="display:inline;fill:#201d26;fill-opacity:1;stroke-width:0.264583"
       d="m 69.915957,1.5770517 c 0,0 -3.548367,17.7418313 -2.759842,17.6104103 0.788527,-0.131421 35.615085,-0.919947 35.615085,-0.919947 L 101.98267,1.7084726 Z"
       id="path2" />
    <path
       id="path8"
       style="display:inline;fill:#472929;fill-opacity:1;stroke-width:0.264999"
       d="m 61.11247,92.374094 -11.32799,0.944128 v 18.966288 l 4.376477,2.0593 0.172082,-8.75347 1.716174,7.20886 6.4363,-2.40295 -6.093168,-8.75347 6.178951,-3.003952 z m -5.750036,3.775997 4.634342,0.858345 -4.46226,2.660303 -2.402954,-1.029911 z" />
    <path
       id="path10"
       style="fill:#472929;fill-opacity:1;stroke-width:0.264999"
       d="M 69.093895 93.318222 L 67.462987 109.79577 L 75.530195 112.02664 L 79.735623 102.75847 L 79.907189 96.579522 L 69.093895 93.318222 z M 73.384589 99.068259 L 74.071369 99.239824 L 77.847366 101.04178 L 74.758149 106.53447 L 71.411066 106.8776 L 73.384589 99.068259 z " />
    <path
       style="fill:#472929;fill-opacity:1;stroke-width:0.264999"
       d="m 84.283869,96.40771 12.443843,-0.772377 -0.514919,4.376797 h -5.149175 l 1.458934,12.87294 -8.152863,-1.45893 3.690241,-11.15655 -4.11934,-0.772375 z"
       id="path11" />
    <path
       style="fill:#472929;fill-opacity:1;stroke-width:0.264999"
       d="m 100.33213,95.635333 7.80959,-0.257458 1.02983,3.089505 -4.20516,-0.171641 -0.0858,2.746231 4.03352,0.25746 -0.85819,3.26114 -3.77606,0.0858 0.0858,2.31713 4.63426,0.17164 -1.02984,3.17532 -10.212533,2.05967 z"
       id="path12" />
    <path
       id="path13"
       style="fill:#472929;fill-opacity:1;stroke-width:0.264999"
       d="M 115.74945 94.604965 C 115.74945 94.604965 112.35135 111.71805 112.1693 112.02147 L 115.74945 113.05293 L 119.14769 106.74169 L 117.93432 113.23484 L 124.00269 113.17437 L 121.75735 102.97913 L 125.21605 98.064186 L 115.74945 94.604965 z M 118.29813 98.124647 L 121.15067 99.398988 L 120.05823 102.61533 L 115.68898 103.22201 L 118.29813 98.124647 z " />
    <path
       style="fill:#472929;fill-opacity:1;stroke-width:0.264999"
       d="m 46.20541,122.54465 c 0.242734,0.60683 3.398283,21.23926 3.398283,21.23926 l 5.340158,-6.91793 3.398283,8.37434 9.466645,-23.54525 -6.068362,-2.06324 -3.155548,15.41364 -3.641018,-6.43246 -3.276915,9.58801 -0.242735,-17.47689 z"
       id="path14" />
    <path
       style="fill:#472929;fill-opacity:1;stroke-width:0.264999"
       d="m 68.922161,123.26924 -4.720078,20.25343 6.951389,1.20147 0.257458,-4.63425 h -2.832047 l 1.287293,-6.17901 4.8059,-0.4291 -0.686557,-3.43279 h -3.518604 l 1.458931,-4.46262 4.720079,-0.0858 0.257458,-4.89171 -7.552123,-0.17164 z"
       id="path17" />
    <path
       id="path18"
       style="fill:#472929;fill-opacity:1;stroke-width:0.264999"
       d="m 78.190467,121.89636 -2.402955,24.20111 2.575037,0.68626 2.831869,-10.38386 0.60048,10.38386 h 4.119645 l -3.518648,-15.6192 6.178951,-5.9216 -3.432866,-2.74609 z m 5.664253,3.08922 -0.428914,2.74608 -3.2613,0.94413 1.544609,-3.34708 z" />
    <path
       style="fill:#472929;fill-opacity:1;stroke-width:0.264999"
       d="m 87.630835,144.72414 3.518601,0.4291 2.488769,-10.12671 2.231311,9.52597 3.003686,-9.52597 1.373108,11.32819 3.43279,-1.45894 -1.20148,-18.96613 -3.947698,-0.51492 -2.145488,8.41033 -1.544753,-9.35434 h -3.690245 z"
       id="path19" />
    <path
       style="fill:#472929;fill-opacity:1;stroke-width:0.264999"
       d="m 106.7686,125.50055 -2.38053,1.49931 1.52234,19.9556 10.46999,-1.37312 -1.02984,-20.51088 -3.5186,-0.34328 v 15.36171 l -2.40295,-1.45894 z"
       id="path20"
       sodipodi:nodetypes="ccccccccc" />
    <path
       style="fill:#472929;fill-opacity:1;stroke-width:0.297232"
       d="m 118.39024,125.07145 7.44969,-0.60073 0.32391,5.92155 -2.91511,-0.4291 1.40357,15.79081 -5.18239,0.51491 1.94339,-15.61916 -3.77882,0.0858 -1.51154,-4.97754 z"
       id="path21" />
  </g>
</svg>
