<?xml version="1.0" encoding="UTF-8" standalone="no"?>
<!-- Created with Inkscape (http://www.inkscape.org/) -->

<svg
   width="69.243256mm"
   height="197.25291mm"
   viewBox="0 0 69.243256 197.25291"
   version="1.1"
   id="svg1"
   xmlns="http://www.w3.org/2000/svg"
   xmlns:svg="http://www.w3.org/2000/svg">
  <defs
     id="defs1">
    <clipPath
       clipPathUnits="userSpaceOnUse"
       id="clipPath3">
      <path
         style="fill:#1a9534;stroke-width:0.264583"
         d="M 41.339577,197.99635 110.58283,194.6245 104.14355,88.71277 98.132662,67.652064 106.70079,46.708494 90.345334,40.208957 91.088763,0.74342929 68.24926,2.2302878 67.524514,41.215228 56.245519,49.854858 60.961201,65.421775 50.574805,95.604986 Z"
         id="path4" />
    </clipPath>
    <clipPath
       clipPathUnits="userSpaceOnUse"
       id="clipPath6">
      <path
         style="fill:#dfe6e0;fill-opacity:0.507273;stroke-width:0.264583"
         d="M 38.900608,120.64445 C 43.894605,118.54172 77.538374,96.988675 77.538374,96.988675 L 119.0674,126.95266 81.743844,158.75653 Z"
         id="path7" />
    </clipPath>
  </defs>
  <g
     id="layer1"
     transform="translate(-41.339576,-0.74342926)">
    <path
       style="display:inline;fill:#dfe6e0;fill-opacity:0.507273;stroke-width:0.264583"
       d="M 41.339576,197.99635 110.58283,194.6245 104.14355,88.71277 98.132663,67.652063 106.70079,46.708493 90.345335,40.208958 91.088764,0.74342928 68.249261,2.2302878 67.524513,41.215228 56.24552,49.854857 60.9612,65.421775 50.574806,95.604985 Z"
       id="path1" />
    <path
       style="fill:#1132af;fill-opacity:1;stroke-width:0.264583"
       d="m 62.293539,35.483662 c 2.628421,-0.788524 44.683131,0.262842 44.683131,0.262842 0,0 -4.20547,-39.4262911 -5.78252,-39.4262911 -1.577055,0 -38.900611,-4.731155 -38.900611,-4.731155 z"
       id="path2"
       clip-path="url(#clipPath3)" />
    <path
       style="display:inline;fill:#293cca;fill-opacity:1;stroke-width:0.264583"
       d="M 41.339576,197.99635 110.58283,194.6245 104.14355,88.71277 98.132663,67.652063 106.70079,46.708493 90.345335,40.208958 91.088764,0.74342928 68.249261,2.2302878 67.524513,41.215228 56.24552,49.854857 60.9612,65.421775 50.574806,95.604985 Z"
       id="path5"
       clip-path="url(#clipPath6)" />
  </g>
</svg>
